<?xml version="1.0" encoding="UTF-8"?>
<svg id="Layer_2" data-name="Layer 2" xmlns="http://www.w3.org/2000/svg" xmlns:xlink="http://www.w3.org/1999/xlink" viewBox="0 0 697.87 415.71">
  <defs>
    <style>
      .cls-1 {
        fill: #13de00;
      }

      .cls-1, .cls-2, .cls-3, .cls-4, .cls-5, .cls-6, .cls-7, .cls-8, .cls-9, .cls-10, .cls-11, .cls-12, .cls-13, .cls-14, .cls-15, .cls-16 {
        fill-rule: evenodd;
      }

      .cls-17 {
        fill: url(#linear-gradient-2);
      }

      .cls-2 {
        fill: #56971d;
      }

      .cls-18 {
        stroke: #5e1600;
        stroke-miterlimit: 10;
      }

      .cls-18, .cls-19, .cls-20 {
        fill: none;
      }

      .cls-21, .cls-22, .cls-3 {
        fill: #fff;
      }

      .cls-22 {
        opacity: .5;
      }

      .cls-23 {
        fill: url(#linear-gradient-4);
      }

      .cls-4 {
        fill: #c7fca8;
      }

      .cls-24 {
        fill: url(#linear-gradient-3);
      }

      .cls-25 {
        clip-path: url(#clippath-1);
      }

      .cls-26 {
        fill: url(#linear-gradient-5);
      }

      .cls-27 {
        fill: #5e1600;
      }

      .cls-5 {
        fill: #2b4b10;
      }

      .cls-6 {
        fill: #8e5413;
      }

      .cls-28 {
        fill: #992000;
      }

      .cls-7 {
        fill: #ffbf28;
      }

      .cls-19 {
        clip-rule: evenodd;
      }

      .cls-8 {
        fill: #cd981d;
      }

      .cls-9 {
        fill: #13ee00;
      }

      .cls-10 {
        fill: #ffe500;
      }

      .cls-11 {
        fill: #15fd00;
      }

      .cls-12 {
        fill: #f0c471;
      }

      .cls-20 {
        stroke: #fff;
        stroke-dasharray: 18;
        stroke-linecap: round;
        stroke-linejoin: round;
      }

      .cls-13 {
        fill: #ffd500;
      }

      .cls-29 {
        clip-path: url(#clippath-2);
      }

      .cls-14 {
        fill: #3e6d14;
      }

      .cls-30 {
        fill: url(#linear-gradient);
      }

      .cls-15 {
        fill: #f8ed7b;
      }

      .cls-31 {
        clip-path: url(#clippath);
      }

      .cls-16 {
        fill: #753221;
      }
    </style>
    <linearGradient id="linear-gradient" x1="103.47" y1="110.05" x2="103.47" y2="282.39" gradientUnits="userSpaceOnUse">
      <stop offset="0" stop-color="#ff0"/>
      <stop offset=".21" stop-color="#fffc00"/>
      <stop offset=".35" stop-color="#fff300"/>
      <stop offset=".46" stop-color="#ffe400"/>
      <stop offset=".56" stop-color="#ffcf00"/>
      <stop offset=".66" stop-color="#ffb400"/>
      <stop offset=".75" stop-color="#ff9300"/>
      <stop offset=".83" stop-color="#ff6b00"/>
      <stop offset=".91" stop-color="#ff3d00"/>
      <stop offset=".98" stop-color="#ff0b00"/>
      <stop offset="1" stop-color="red"/>
    </linearGradient>
    <linearGradient id="linear-gradient-2" x1="230.43" y1="97.73" x2="230.43" y2="270.41" gradientUnits="userSpaceOnUse">
      <stop offset="0" stop-color="#ff0"/>
      <stop offset=".23" stop-color="#fffc00"/>
      <stop offset=".37" stop-color="#fff400"/>
      <stop offset=".48" stop-color="#ffe600"/>
      <stop offset=".58" stop-color="#ffd100"/>
      <stop offset=".67" stop-color="#ffb700"/>
      <stop offset=".75" stop-color="#ff9700"/>
      <stop offset=".83" stop-color="#ff7100"/>
      <stop offset=".9" stop-color="#ff4500"/>
      <stop offset=".97" stop-color="#ff1400"/>
      <stop offset="1" stop-color="red"/>
    </linearGradient>
    <linearGradient id="linear-gradient-3" x1="362.01" y1="104.43" x2="362.01" y2="271.15" gradientUnits="userSpaceOnUse">
      <stop offset="0" stop-color="#ff0"/>
      <stop offset=".21" stop-color="#fffc00"/>
      <stop offset=".35" stop-color="#fff300"/>
      <stop offset=".46" stop-color="#ffe500"/>
      <stop offset=".56" stop-color="#ffd000"/>
      <stop offset=".66" stop-color="#ffb500"/>
      <stop offset=".75" stop-color="#ff9400"/>
      <stop offset=".83" stop-color="#ff6c00"/>
      <stop offset=".91" stop-color="#ff3f00"/>
      <stop offset=".98" stop-color="#ff0c00"/>
      <stop offset="1" stop-color="red"/>
    </linearGradient>
    <linearGradient id="linear-gradient-4" x1="471.77" y1="95.65" x2="471.77" y2="264.89" gradientUnits="userSpaceOnUse">
      <stop offset="0" stop-color="#ff0"/>
      <stop offset=".2" stop-color="#fffc00"/>
      <stop offset=".33" stop-color="#fff300"/>
      <stop offset=".45" stop-color="#ffe400"/>
      <stop offset=".55" stop-color="#ffce00"/>
      <stop offset=".65" stop-color="#ffb200"/>
      <stop offset=".74" stop-color="#ff9000"/>
      <stop offset=".83" stop-color="#ff6700"/>
      <stop offset=".91" stop-color="#ff3800"/>
      <stop offset=".99" stop-color="#ff0400"/>
      <stop offset="1" stop-color="red"/>
    </linearGradient>
    <linearGradient id="linear-gradient-5" x1="581.19" y1="113.57" x2="581.19" y2="282.25" gradientUnits="userSpaceOnUse">
      <stop offset="0" stop-color="#ff0"/>
      <stop offset=".15" stop-color="#fffb00"/>
      <stop offset=".28" stop-color="#fff100"/>
      <stop offset=".4" stop-color="#ffdf00"/>
      <stop offset=".52" stop-color="#ffc700"/>
      <stop offset=".63" stop-color="#ffa700"/>
      <stop offset=".74" stop-color="#ff8000"/>
      <stop offset=".85" stop-color="#ff5100"/>
      <stop offset=".95" stop-color="#ff1d00"/>
      <stop offset="1" stop-color="red"/>
    </linearGradient>
    <clipPath id="clippath">
      <path class="cls-19" d="M345.21,74.94l.09.12c.41.56.8,1.2,1.11,1.81h0c.84-.47,2.04-1.08,3.11-1.69h0c-.17-.37-.41-.83-.63-1.16-.22-.33-.46-.66-.72-.97l-.03-.04-2.93,1.93h0Z"/>
    </clipPath>
    <clipPath id="clippath-1">
      <path class="cls-19" d="M313.23,54.33c3.36-.98,6.95-1.26,10.41-1.03-.2-2.81-1.44-20.71-7.94-15.07-3.69,3.24-2.77,11.68-2.47,16.1h0ZM314.73,65.49c.39,1.81,2.98,10.1,1.91,11.16-1.72,1.84-14.69,2.69-16.06.46-.13-.22-.38-.65-.44-.88-4.01-15.26-8.47-47.38,11.26-54.17,24.05-8.22,28.39,31.26,27.47,46.61-.09,1.48-.47,3.11-1.17,4.4-1,1.76-5.49,1.68-7.3,1.9-10.78.86-6.91-1.54-6.58-10.23-3,.41-6.1.35-9.1.74h0ZM192.32,51.74c.69-4.38,1.67-12.8,5.99-15.14,7.59-4.05,4.83,13.68,4.39,16.46-3.32-1-6.88-1.53-10.38-1.33h0ZM245.51,47.98c5.47-3.81,21.16-16.3,15.64-23.82-1.67-2.28-5.58-6.01-8.69-5-2.65.82-13.91,15.4-17.03,18.65.08-3.44,1.54-14.71.99-17.07-1.24-5.27-14.62-5.54-16.89-1.48-2.13,3.74-2.12,19.14-2.1,24.09,0,.28.01.63.01,1.05-.52-13.63-5.19-26.04-19.73-24.53-20.75,2.2-23.54,34.5-23.03,50.28,0,.24.15.72.23.96.84,2.48,13.67,4.56,15.75,3.15,1.28-.79.6-9.46.62-11.3,3.01.28,6.02,1.03,9.03,1.31-2.25,8.39-6.56,9.86,4.14,11.44,1.83.18,6.18,1.27,7.54-.22.97-1.1,1.7-2.6,2.12-4.03,1.65-5.65,3.33-14.89,3.37-24.01.17,8.77.77,26.57,3.64,28.23.66.35,3.15.74,3.95.85,2.97.36,11.82.71,12.17-3.55.3-3.77-.95-9.28-1.22-13.25,3.4,4.55,13.44,16.64,19,16.26,1.32-.09,2.91-1.31,4.36-3.02.05.79.17,1.39.37,1.66,1.21,1.71,7.12,2.23,9.21,2.46,5.73.54,11.92-.12,16.95-3.22,3.6-2.22,6.49-5.9,8.04-9.83,5.66-14.5-12.5-18.67-9.88-24.19,1.98-4.22,11.48.25,13.17-.64.8-.42,3.43-12.94,3.31-13.65-.25-1.08-3.58-2.37-4.55-2.75-22.18-8.34-39.97,13.13-26.2,28.52,1.49,1.63,7.47,5.67,7.18,7.66-.49,4-12.63-.34-15.37,1.43-3.96-3.11-13.62-9.62-16.13-12.42h0Z"/>
    </clipPath>
    <clipPath id="clippath-2">
      <path class="cls-19" d="M494.48,49.63c.46-4.24,1.02-12.38,5.06-14.83,7.11-4.24,5.26,12.93,4.97,15.62-3.24-.8-6.69-1.15-10.04-.8h0ZM365.96,45.84c-.23-2.22-.85-11.4.94-12.69,5-3.54,13.6,2.13,8.37,7.91-2.36,2.61-6.31,3.21-9.31,4.78h0ZM368.3,62.47c4.36,4.29,9.52,7.72,15.11,10.21,1.16.5,4.2,2,5.34,1.81,1.25-.2,4.38-5.1,6.01-8.84.05,1.95.16,3.77.29,5.4,0,.23.18.68.26.91.92,2.35,13.35,3.75,15.28,2.3,1.2-.82.14-9.12.08-10.9,2.91.13,5.83.72,8.75.84-1.78,8.17-5.85,9.78,4.5,10.81,1.76.1,5.99.94,7.24-.56.88-1.11,1.52-2.59,1.85-3.98,3.48-14.39,6.05-52.52-18.13-48.83-16.06,2.49-19.91,23.41-20.15,39.32-.89-.47-2.14-.95-2.67-1.25-3.58-1.79-6.72-4.22-10.15-6.24,5.84-3.58,9.48-8.84,10.54-15.63.31-2.08.31-4.16-.29-6.21-3.47-11.92-16.49-14.99-27.39-14.15-2.9.18-7.02.48-9.31,2.55-1.68,1.54-2.65,4.21-3.18,7.38-1.22,7.31-.09,17.26.08,22.18.23,6.59.61,13.25,1.6,19.81.4,2.67.91,8.48,4.36,8.82,1.38.11,7.45-1.1,8.96-1.54,1.21-.35,3.49-.82,3.82-2.28.07-.16-2.51-10.57-2.79-11.94h0ZM411.13,52.54c.47-4.24,1.02-12.38,5.07-14.83,7.11-4.24,5.26,12.93,4.97,15.62-3.23-.8-6.68-1.15-10.04-.79h0ZM449.31,42.92c-.23-2.22-.85-11.4.93-12.69,5-3.54,13.6,2.13,8.38,7.91-2.36,2.61-6.31,3.21-9.31,4.78h0ZM451.65,59.56c4.35,4.29,9.51,7.72,15.1,10.21,1.17.5,4.2,2,5.34,1.81,1.26-.2,4.38-5.1,6.01-8.84.05,1.95.16,3.77.29,5.4,0,.23.18.68.26.91.92,2.35,13.35,3.75,15.29,2.31,1.2-.82.14-9.12.08-10.9,2.91.13,5.83.72,8.74.84-1.78,8.17-5.85,9.78,4.5,10.81,1.76.1,6,.94,7.24-.55.88-1.11,1.51-2.59,1.85-3.98,3.48-14.39,6.05-52.51-18.13-48.83-16.06,2.49-19.91,23.41-20.15,39.32-.89-.47-2.14-.95-2.67-1.25-3.58-1.79-6.72-4.22-10.15-6.24,5.83-3.58,9.47-8.84,10.53-15.62.31-2.09.31-4.16-.29-6.21-3.47-11.92-16.49-14.99-27.39-14.15-2.9.18-7.01.48-9.31,2.55-5.55,5.11-3.35,22.51-3.1,29.55.23,6.59.62,13.25,1.61,19.81.4,2.67.91,8.48,4.36,8.82,1.38.11,7.45-1.11,8.96-1.54,1.21-.35,3.49-.82,3.82-2.28.07-.16-2.51-10.57-2.78-11.94h0Z"/>
    </clipPath>
  </defs>
  <g id="Layer_1-2" data-name="Layer 1">
    <g>
      <path class="cls-27" d="M657.58,414.98c-202.63-22.92-407.19-22.92-609.82,0-19.33,2.18-36.99-11.43-39.48-30.71,0-.07-.02-.14-.03-.21-2.48-19.27,11.64-36.97,31.57-39.22,207.9-23.52,417.79-23.52,625.69,0,19.93,2.25,34.05,19.95,31.57,39.22,0,.07-.02.14-.03.21-2.48,19.28-20.15,32.89-39.48,30.71Z"/>
      <path class="cls-18" d="M657.58,414.98c-202.63-22.92-407.19-22.92-609.82,0-19.33,2.18-36.99-11.43-39.48-30.71,0-.07-.02-.14-.03-.21-2.48-19.27,11.64-36.97,31.57-39.22,207.9-23.52,417.79-23.52,625.69,0,19.93,2.25,34.05,19.95,31.57,39.22,0,.07-.02.14-.03.21-2.48,19.28-20.15,32.89-39.48,30.71Z"/>
      <path class="cls-20" d="M43.69,410.21c-15.41,0-28.5-11.43-30.45-26.58l-.03-.25c-1.01-7.81,1.16-15.61,6.11-21.91,5.15-6.57,12.63-10.71,21.07-11.66,103.28-11.68,208.35-17.61,312.28-17.61s209,5.92,312.28,17.61c8.44.95,15.92,5.09,21.07,11.66,4.95,6.31,7.12,14.1,6.11,21.95l-.02.12c-1.96,15.24-15.05,26.67-30.46,26.67-1.16,0-2.34-.07-3.51-.2-101.02-11.43-203.8-17.22-305.47-17.22s-204.45,5.79-305.47,17.22c-1.16.13-2.34.2-3.51.2Z"/>
      <path class="cls-3" d="M533.65,47.03c-.01-.48-.03-.96-.05-1.46v-.39c-.49-16.64-5.29-28.55-14.29-35.4-5.01-3.82-10.92-5.76-17.55-5.76-1.75,0-3.56.14-5.38.42-5.48.84-10.53,2.99-14.86,6.28-5.92-5.75-14.23-9.4-23.93-10.42-1.9-.2-3.86-.3-5.82-.3-1.44,0-2.91.05-4.37.16-4.55.34-12.17.9-18.12,6.35-.61.56-1.19,1.16-1.74,1.79-2.87-.91-5.92-1.37-9.12-1.37-1.75,0-3.56.14-5.38.42-5.48.84-10.54,2.99-14.86,6.28-5.92-5.74-14.21-9.39-23.89-10.42-1.92-.2-3.89-.31-5.87-.31-1.44,0-2.91.06-4.37.16-1.61.12-3.68.27-5.92.68-1.88-.88-3.95-1.35-6.08-1.35-1.51,0-3.01.23-4.52.69l-.15.05c-2.14.7-4.08,1.89-5.68,3.48-.41.23-.81.48-1.19.75-.2-.14-.39-.29-.59-.42-.78-.52-1.61-.96-2.48-1.31-.27-.27-.55-.52-.84-.77-1.83-1.54-4.08-2.53-6.44-2.87-2.19-1.1-4.61-1.68-7.07-1.68-2.25,0-4.44.49-6.58,1.49-2.7,1.31-4.91,3.28-6.42,5.68-1.11.27-2.22.59-3.32.97-1.33.46-2.62.99-3.87,1.59-.69-.29-1.3-.52-1.79-.7-4.9-1.84-9.92-2.78-14.94-2.78-5.8,0-11.32,1.25-16.4,3.71-.44.21-.87.43-1.29.66-3.43-3.1-8.52-6.31-14.92-6.31-1.85,0-3.68.28-5.42.84-1.53.49-2.88,1.18-4.08,1.97-3.94-3.18-9.32-5.07-15.44-5.31-.4-.02-.82-.02-1.25-.02-6.62,0-12.25,1.83-16.27,5.24-3.42-1.31-7.11-1.97-11.03-1.97-1.25,0-2.54.07-3.83.2-22.78,2.4-36.21,25.6-35.93,61.99-.01,1.61,0,3.22.05,4.73.05,2.23.59,4.06.99,5.23,3.35,9.9,14.95,11.94,18.77,12.62,2.83.5,5.42.75,7.7.75,2.54,0,4.79-.31,6.79-.94,0,0,0,0,0,0,2.67.98,5.35,1.42,7.86,1.79l.58.07c.3.03.62.08.96.13l.17.02c1.37.2,3.24.48,5.31.48,2.58,0,4.98-.44,7.15-1.32,1.5.53,3.62,1.07,6.75,1.45,1.19.15,3.06.32,5.28.32,6.24,0,11.33-1.31,15.2-3.91,3.71,2.13,7.32,3.17,10.97,3.17.41,0,.81-.01,1.22-.04.91-.06,1.82-.2,2.71-.41,2.83.8,5.77,1.16,8.55,1.44l.3.03c1.68.17,3.36.25,5,.25,6.73,0,12.81-1.35,18.15-4.01,3.55,3.46,8.85,5.21,15.81,5.21h.02c1.2,0,2.24-.05,2.92-.08,6.03-.31,10.67-1.44,14.09-3.44,0,0,0,0,0,0,1.11.14,2.26.2,3.52.2,1.6,0,3.1-.11,4.49-.22l.58-.06c.31-.04.64-.06.98-.09h.15c2.49-.2,7.23-.58,11.44-3.24,1.33,1.77,3.03,3.42,5.28,4.76,2.24,1.34,4.71,2.15,7.38,2.41l.19.02c.45.04.93.06,1.43.06h.02c2.44,0,4.96-.47,6.62-.78l.37-.07c1.74-.32,3.71-.68,5.76-1.27,1.68-.48,5.04-1.45,8.12-3.82.32.14.64.27.96.4,2.08.84,4.88,1.8,8.13,1.8.87,0,1.73-.07,2.56-.21,1.23-.2,2.42-.55,3.58-1.06,2.37.66,4.64,1,6.28,1.21,2.19.28,4.14.41,5.97.41,3.09,0,5.76-.4,8.08-1.22,2.78.85,5.39,1.1,7.08,1.27l.64.06.37.02c.31.02.64.05.98.08h.15c1.11.12,2.49.26,4.05.26,2.61,0,5.02-.41,7.19-1.23,1.51.6,3.11.98,4.78,1.14l.23.02c.45.04.93.06,1.44.06,2.44,0,4.87-.45,6.64-.78l.41-.08c1.72-.32,3.68-.68,5.7-1.26,1.68-.48,5.04-1.45,8.12-3.82.32.14.63.27.95.4,2.08.84,4.88,1.8,8.13,1.8.87,0,1.73-.07,2.56-.21,1.23-.2,2.43-.55,3.58-1.06,2.37.66,4.64,1,6.29,1.21,2.19.28,4.14.41,5.97.41,3.09,0,5.75-.4,8.08-1.22,2.78.85,5.39,1.1,7.08,1.27l.62.06.38.03c.31.02.64.05.98.08h.15c1.11.12,2.49.26,4.05.26,5.9,0,10.81-2.16,14.24-6.29l.09-.11c2.73-3.43,4.03-7.16,4.64-9.68,1.9-7.85,2.84-17.34,2.59-26.05Z"/>
      <g>
        <path class="cls-21" d="M111.32,325.28c-49.46,0-94.28-35-106.57-83.22C-4.33,207.11-.27,170.19,15.92,140.7c17.67-37.99,51.45-60.65,90.51-60.65,7.04,0,14.23.76,21.37,2.26,9.81,2.05,19.52,6.67,28.33,13.25,8.81-12.3,24.88-20.69,47.81-24.93,15.49-2.87,28.81-2.9,29.37-2.9h.92s1.4.05,1.4.05c22.59.62,45.78,2.45,59.38,16.99.41.43.8.87,1.19,1.32,20.96-8.98,48.21-11.18,65.8-11.56,1.77-.07,3.55-.1,5.3-.1,22.75,0,41.94,5.43,56.53,15.87,2.26-3.52,4.81-6.56,7.7-9.19l.14-.12c10.88-9.74,26.45-15.33,42.7-15.33,24.8,0,46.13,12.09,55.66,31.54l.07.14c.44.92.85,1.84,1.22,2.79.84,1.38,1.61,2.78,2.3,4.2l.07.14c.69,1.44,1.32,2.94,1.87,4.49.45-.55.91-1.1,1.36-1.64l.12-.14c7.71-9.03,15.32-14.91,23.95-18.51,7.91-3.33,16.73-5.09,25.53-5.09,1.67,0,3.35.06,5.01.19.26,0,.51,0,.77,0,1.76,0,3.27.11,4.26.18,13.87,1.01,26.99,6.24,36.95,14.71,7.65,6.43,13.87,14.25,19.56,24.61,1.98,3.58,3.94,7.37,5.95,11.51,12.2,23.2,21.72,50.27,29.09,82.75,5.59,23.83,10.02,56.55-.51,77.39-12.22,24.53-36.01,27.43-47.45,28.83l-.18.02c-1.11.13-2.22.27-3.34.43-3.73.63-7.47.95-11.12.95-19.93,0-36.73-9.32-46.85-24.95-10.74,11.75-25.25,18.35-41.47,18.35-2.18,0-4.41-.12-6.63-.36-9.7-1.01-25.89-4.21-39.62-14.16-6.2,2.48-12.95,3.76-20.08,3.76h-.49c-12.01-.1-22.82-2.86-32.03-8.09-9.71,6.1-21.22,9.69-32.82,9.93h-.86c-12.66,0-24.05-5.53-34.57-13.41-12.23,11.23-29.62,17.84-47.42,17.84-13.9,0-26.49-4.33-36.04-12.05-19.39,7.73-45.16,11.31-64.54,11.31-11.7,0-21.28-1.21-29.28-3.69-4.94-1.52-9.58-3.79-13.91-6.78-14.86,10.95-32.01,16.67-42.75,19.41l-.16.04c-8.06,1.99-16.36,2.99-24.67,2.99h0Z"/>
        <rect class="cls-21" x="410.35" y="83" width="15.54" height="13.3"/>
      </g>
      <path class="cls-21" d="M668.62,222.01c-7.02-30.92-16-56.51-27.46-78.23-1.91-3.94-3.75-7.52-5.63-10.9-4.47-8.14-9.24-14.19-14.94-18.97-6.76-5.76-15.81-9.33-25.49-10.04-.84-.06-1.79-.13-2.82-.13-.44,0-.86.01-1.26.04-1.5-.15-3.01-.22-4.52-.22-6.16,0-12.33,1.23-17.8,3.54-5.63,2.34-10.84,6.47-16.47,13.05-11.63,13.88-23.27,32.21-33.67,53.02-.99,1.88-1.97,3.76-2.92,5.66,4.55-34.15,5.4-54.49,0-65.72-.67-1.38-1.47-2.74-2.38-4.08-.35-1.08-.75-2.08-1.21-3.05-6.15-12.55-20.59-20.34-37.7-20.34-11.39,0-22.07,3.71-29.36,10.23-3.17,2.89-5.77,6.95-7.94,12.38-2.47,3.95-5.15,9.72-7.42,19.43-2.12-4.24-4.68-8.24-7.65-11.88-14.19-17.67-37.57-21.38-54.69-21.38-1.55,0-3.13.03-4.7.09-9.87.21-58.28,2.11-72.8,19.5-.21.24-.41.49-.6.75-.92-2.68-2.12-5.2-3.66-7.42-1.21-3.6-2.93-6.6-5.12-8.92-7.49-8.01-23.54-10.06-45.32-10.66l-1.21-.03h-.55c-.48,0-47.75.22-61.18,19.85-1.49,2.15-2.77,4.62-3.9,7.53-2.7,4.23-4.72,9.71-6.2,15.97-9.32-14.77-23.97-26.19-38.33-29.19-5.79-1.21-11.6-1.83-17.27-1.83-31.29,0-58.42,18.56-72.66,49.69-14.03,25.15-17.54,56.98-9.65,87.37,10.07,39.49,46.74,68.16,87.19,68.16,6.7,0,13.36-.8,19.88-2.41,18.37-4.69,37.62-14.04,48.01-28,5.54,8.11,12.07,13.35,19.53,15.64,5.97,1.85,13.82,2.79,23.35,2.79,22.01,0,53.25-5.37,67.78-15.31l.09-.06c.53-.37,1.04-.77,1.54-1.18.19.42.38.82.57,1.18l.09.17c5.63,10.13,16.75,15.94,30.51,15.94s27.53-5.6,35.97-14.62c3.75-4.01,6.3-8.51,7.57-13.33,14.48,14.37,26.73,23.53,38.46,23.54h.44c12.17-.26,25.15-6.1,32.81-16,7.63,9.18,18.67,14.03,32.62,14.15h.32c9.07,0,16.83-3.14,22.87-9.03.5.74,1.03,1.46,1.6,2.17,10.74,13.29,29.74,16.59,37.37,17.38,1.51.16,3.01.24,4.48.24,15.76,0,28.66-9.43,35.46-25.91,5.67.31,11.23.84,16.81,1.6,3.88,19.12,17.54,30.91,36.05,30.91,2.6,0,5.29-.24,8-.71,1.42-.21,2.83-.38,4.23-.55,9.79-1.19,24.58-3,31.99-17.95,8.58-16.89,2.08-50.37-1.11-63.92ZM424.44,215.44c-.9-.93-1.84-1.87-2.82-2.82.93-.93,1.83-1.89,2.7-2.88.02,1.15.05,2.31.07,3.49.01.74.03,1.48.04,2.21ZM275.26,201.92c.52-1.47.91-3,1.18-4.6.03-.19,2.74-19-1.94-29.42,1.72-.92,3.33-2.08,4.83-3.46,0,13.92.32,26.94.95,39.18-1.58-.71-3.25-1.28-5.03-1.7ZM97.15,211.82c-1.54-4.72-2.05-10.23-1.39-15.33.78-6.11,3.01-9.32,3.8-9.63,0,0,.05,0,.12,0,.08,0,.26,0,.44.03,1.43.39,4.92,4.1,7,6.33,4.41,4.71,9.41,10.04,16.68,13.12,1.02.43,2.06.81,3.11,1.15-.99.57-1.96,1.15-2.92,1.71-6.57,3.87-12.79,7.53-17.88,7.53-.87,0-1.7-.11-2.56-.33-2.4-.63-4.54-2.16-6.39-4.56Z"/>
      <path class="cls-27" d="M668.62,222.01c-7.02-30.92-16-56.51-27.46-78.23-1.91-3.94-3.75-7.52-5.63-10.9-4.47-8.14-9.24-14.19-14.94-18.97-6.76-5.76-15.81-9.33-25.49-10.04-.84-.06-1.79-.13-2.82-.13-.44,0-.86.01-1.26.04-1.5-.15-3.01-.22-4.52-.22-6.16,0-12.33,1.23-17.8,3.54-5.63,2.34-10.84,6.47-16.47,13.05-11.63,13.88-23.27,32.21-33.67,53.02-.99,1.88-1.97,3.76-2.92,5.66,4.55-34.15,5.4-54.49,0-65.72-.67-1.38-1.47-2.74-2.38-4.08-.35-1.08-.75-2.08-1.21-3.05-6.15-12.55-20.59-20.34-37.7-20.34-11.39,0-22.07,3.71-29.36,10.23-3.17,2.89-5.77,6.95-7.94,12.38-2.47,3.95-5.15,9.72-7.42,19.43-2.12-4.24-4.68-8.24-7.65-11.88-14.19-17.67-37.57-21.38-54.69-21.38-1.55,0-3.13.03-4.7.09-9.87.21-58.28,2.11-72.8,19.5-.21.24-.41.49-.6.75-.92-2.68-2.12-5.2-3.66-7.42-1.21-3.6-2.93-6.6-5.12-8.92-7.49-8.01-23.54-10.06-45.32-10.66l-1.21-.03h-.55c-.48,0-47.75.22-61.18,19.85-1.49,2.15-2.77,4.62-3.9,7.53-2.7,4.23-4.72,9.71-6.2,15.97-9.32-14.77-23.97-26.19-38.33-29.19-5.79-1.21-11.6-1.83-17.27-1.83-31.29,0-58.42,18.56-72.66,49.69-14.03,25.15-17.54,56.98-9.65,87.37,10.07,39.49,46.74,68.16,87.19,68.16,6.7,0,13.36-.8,19.88-2.41,18.37-4.69,37.62-14.04,48.01-28,5.54,8.11,12.07,13.35,19.53,15.64,5.97,1.85,13.82,2.79,23.35,2.79,22.01,0,53.25-5.37,67.78-15.31l.09-.06c.53-.37,1.04-.77,1.54-1.18.19.42.38.82.57,1.18l.09.17c5.63,10.13,16.75,15.94,30.51,15.94s27.53-5.6,35.97-14.62c3.75-4.01,6.3-8.51,7.57-13.33,14.48,14.37,26.73,23.53,38.46,23.54h.44c12.17-.26,25.15-6.1,32.81-16,7.63,9.18,18.67,14.03,32.62,14.15h.32c9.07,0,16.83-3.14,22.87-9.03.5.74,1.03,1.46,1.6,2.17,10.74,13.29,29.74,16.59,37.37,17.38,1.51.16,3.01.24,4.48.24,15.76,0,28.66-9.43,35.46-25.91,5.67.31,11.23.84,16.81,1.6,3.88,19.12,17.54,30.91,36.05,30.91,2.6,0,5.29-.24,8-.71,1.42-.21,2.83-.38,4.23-.55,9.79-1.19,24.58-3,31.99-17.95,8.58-16.89,2.08-50.37-1.11-63.92ZM274.5,167.9c1.72-.92,3.33-2.08,4.83-3.46,0,13.92.32,26.94.95,39.18-1.58-.71-3.25-1.28-5.03-1.7.52-1.47.91-3,1.18-4.6.03-.19,2.74-19-1.94-29.42ZM421.62,212.61c.93-.93,1.83-1.89,2.7-2.88.02,1.15.05,2.31.07,3.49.01.74.03,1.48.04,2.21-.9-.93-1.84-1.87-2.82-2.82ZM103.53,216.39c-2.4-.63-4.54-2.16-6.39-4.56-1.54-4.72-2.05-10.23-1.39-15.33.78-6.11,3.01-9.32,3.8-9.63,0,0,.05,0,.12,0,.08,0,.26,0,.44.03,1.43.39,4.92,4.1,7,6.33,4.41,4.71,9.41,10.04,16.68,13.12,1.02.43,2.06.81,3.11,1.15-.99.57-1.96,1.15-2.92,1.71-6.57,3.87-12.79,7.53-17.88,7.53-.87,0-1.7-.11-2.56-.33Z"/>
      <g>
        <path class="cls-28" d="M111.32,295.28c-35.95,0-68.54-25.5-77.5-60.63-8.57-33.01-2.62-67.04,15.93-91.03,14.3-18.49,34.43-28.68,56.68-28.68,5.25,0,10.65.57,16.04,1.7,22.09,4.63,46.76,33.95,42.68,58.75-2.33,13.56-14.13,23.76-27.45,23.76-3.45,0-6.82-.68-10.03-2.03-5.31-2.24-9.35-6.56-13.26-10.74-4.15-4.43-8.07-8.62-12.67-9.36-.7-.11-1.4-.17-2.06-.17-8.46,0-12.7,9.49-13.84,18.36-1.89,14.72,3.76,32.61,16.18,35.86,1.35.36,2.67.53,4.07.53,6.73,0,13.63-4.06,20.93-8.35,8.08-4.76,16.44-9.68,25.74-9.68.89,0,1.78.05,2.66.14,16.11,1.8,21.68,21.92,21.57,38.61-.06,21.05-24.97,34.9-48.26,40.85-5.67,1.4-11.51,2.1-17.41,2.1h0Z"/>
        <path class="cls-28" d="M222.09,283.3c-8.4,0-15.45-.81-20.38-2.34-22.09-6.81-29.06-52.92-29.78-58.15-3.06-22.17-8.09-83.86,5.14-102.92,9.65-14.1,44.73-17.28,56.25-17.28h.38s1.22.04,1.22.04c17.55.48,34.68,1.88,41.11,8.76,6.29,6.68,6.72,21.11,3.89,31.89-2.36,9.01-6.69,14.92-12.2,16.65-3.1,1.01-6.46,1.5-10.22,1.5-5.11,0-10.23-.92-15.18-1.82-4.86-.88-9.46-1.71-13.95-1.71-1.73,0-3.31.12-4.82.38-.38.06-1.25.81-1.94,2.53-.92,2.28-.88,4.66-.54,5.6,2.76-.05,6.49-.58,10.43-1.14,5.06-.72,10.79-1.53,15.99-1.53,3.33,0,13.45,0,17.67,7.78,2.94,5.58,2.09,20.19,1.43,24.08-2.65,15.79-22.61,15.79-30.13,15.79-2.74,0-5.43-.09-7.79-.17h-.39c-.23-.02-.48-.02-.72-.02-3.49,0-4.82.75-5.06,1.19-.05.1-1.27,2.58,4.63,11.67.26.4.78,1.21,3.13,1.21,3.92,0,9.66-2.26,14.71-4.25,3.37-1.33,6.56-2.58,9.27-3.22,4.05-.89,8.7-1.84,13.4-1.84,5.86,0,10.52,1.46,14.24,4.47,7.68,6,10.91,19.41,10.65,29.32-.25,9.3-3.19,16.39-8.3,19.96-12.42,8.5-41.33,13.56-62.13,13.56h0Z"/>
        <path class="cls-28" d="M322.67,284.04c-10.02,0-17.95-3.94-21.77-10.8-3.65-6.88-7.2-30.9-7.24-31.14-3.04-23.63-4.45-50.39-4.33-81.9,0-.6,0-1.28.01-2.02.08-15.47.96-26.73,5.01-31.38,13.34-16.09,66.21-17.35,68.46-17.39,1.44-.06,2.97-.09,4.48-.09,15.81,0,37.31,3.32,50.01,19.13,11.92,14.63,16.1,34.34,11.16,52.71-3.86,14.38-12.76,25.94-24.86,32.6,12.52,9.82,31.8,27.24,31.08,40.96-.47,14.5-15.79,24.61-29.8,24.9h-.23c-11.85,0-28.63-17.09-47.74-37.73-.97-1.05-1.91-2.06-2.81-3.03.31,1.99.69,3.96,1.08,5.98.76,3.96,1.55,8.05,1.91,12.74.36,5.4-1.64,10.58-5.77,15-6.51,6.96-17.76,11.45-28.66,11.45ZM346.19,177.72c1.29.06,2.79.11,4.05.11h.15c14-.27,20.26-7.19,20.21-12.01-.05-4.68-5.74-7.83-14.17-7.83-.79,0-1.61.03-2.45.08-6.16.47-8.33,5.71-7.79,19.66Z"/>
        <path class="cls-28" d="M470.57,277.77c-34.92-.3-35.58-34.54-36.17-64.74-1.33-58.82,3.59-93.75,14.65-103.83,6.16-5.52,15.38-8.66,25.32-8.66,14.57,0,27.25,6.67,32.31,16.98,5.68,11.82,1.51,44.25-3.66,79.3-1.03,6.99-1.92,13.03-2.3,16.71-.36,3.52-.66,7.26-.95,10.88-.99,12.32-2.02,25.06-5.57,34.96-4.38,12.22-12.23,18.41-23.33,18.41,0,0-.29,0-.29,0Z"/>
        <path class="cls-28" d="M625.51,295.14c-14.29,0-23.96-8.9-26.53-24.42-.26-1.72-.52-3.45-.73-5.26-8.67-1.47-17.17-2.4-25.9-2.85-1.24-.09-4.13-.3-6.6-.34-.79,2.37-1.5,4.38-2.16,6.09-5.23,13.04-14.6,20.19-26.41,20.19-1.11,0-2.26-.06-3.41-.19-5-.52-22.05-3.06-30.67-13.73-3.69-4.56-5.23-9.87-4.6-15.77,3.43-30.77,28.23-90.05,58.33-125.96,4.95-5.8,9.45-9.4,14.17-11.37,4.76-2.01,10.12-3.08,15.49-3.08,1.45,0,2.91.08,4.34.23h.13c.41-.03.84-.05,1.31-.05.82,0,1.61.06,2.38.11,8.41.61,16.24,3.67,22.03,8.62,5.15,4.32,9.47,9.82,13.58,17.29,12.01,21.67,21.36,47.71,28.59,79.57,1.63,6.95,9.43,42.53,1.92,57.21-5.02,10.17-15.24,11.41-24.27,12.51-1.52.19-3.07.37-4.61.6-2.18.39-4.34.58-6.4.58h0ZM579.46,209.82c1.57.17,3.12.37,4.64.58,3.33.44,6.48.86,9.64.89.21-.03.44-.06.67-.08-.39-4.6-.84-9.18-1.45-13.16-1.4-9.6-2.87-13.6-3.72-15.22-1.32,1.73-4.11,6.65-7.91,20.09-.71,2.44-1.33,4.73-1.87,6.9Z"/>
      </g>
      <g>
        <g>
          <path class="cls-30" d="M172.97,243.41c-.06,20.26-27.3,32.42-45.25,37-37.46,9.24-79.59-14.65-90.04-55.64-1.9-7.34-3.05-14.65-3.5-21.81-3.45-55.35,34.85-102.31,87.46-91.29,1.44.3,2.88.72,4.33,1.23,2.53.91,5.05,2.14,7.53,3.63,16.42,9.86,30.64,31.37,27.69,49.33-2.59,15.06-18.27,24.46-31.98,18.69-10.07-4.26-16.06-18.63-26.85-20.36-26.88-4.24-28.36,54.82-1.36,61.87,18.49,4.9,35.04-19.24,53.99-17.26,13.32,1.49,18.08,20,17.98,34.61Z"/>
          <path class="cls-17" d="M281.91,257.57c-15.43,10.56-61.19,16.22-79.03,10.68-16-4.93-24.58-37.26-27.01-54.88-2.4-17.41-5.88-58.64-1.21-83.95,1.25-6.77,3.08-12.4,5.67-16.14,8.01-11.7,39.48-15.6,53.23-15.55,8.92.26,32.28.62,39.19,7.18.12.11.23.22.34.34,8.28,8.81,4.52,38.52-6.58,42-13.91,4.51-29.25-4.19-43.64-1.77-6.53,1.11-8.55,16.32-2.11,16.08,11.38-.06,35.08-7.65,40.87,3.01,2.13,4.03,1.76,17.06,1,21.49-2.26,13.5-21.62,12.71-34.24,12.29-13.01-.37-12.12,7.51-4.65,19.02,5.25,8.14,22.45-2.45,31.39-4.54,7.81-1.73,17.58-3.51,24.21,1.85,10.34,8.09,12.96,35.62,2.57,42.89Z"/>
          <path class="cls-24" d="M395.89,204.04c31.28-11.86,40.69-54.47,18.29-81.97-2.71-3.38-5.93-6.17-9.49-8.45-12.03-7.71-28-9.66-41.8-9.1-15.2.31-55.33,3.6-65.5,15.99-2.49,2.8-3.44,10.42-3.81,17.64-.26,5.29-.23,10.36-.26,13.18-.1,26.65.9,54.93,4.29,81.31.83,5.74,4.04,24.61,6.78,29.77,9.73,17.52,50.05,6.47,48.71-13.4-.83-10.9-4.17-18.81-3.63-29.59,10.93,10.33,40.91,47.56,55.33,47.32,11.49-.24,25.48-8.62,25.89-21.11.71-13.59-24.46-34-34.8-41.59ZM350.39,172.94c-2.93.01-8.02-.24-8.04-.45-.8-13.05-.66-26.38,11.37-27.3,29.9-1.87,26.66,27.17-3.33,27.75Z"/>
          <path class="cls-23" d="M496.72,204.23c-2.74,26.86-1.76,60.89-26.13,60.66-30.03-.26-31.56-27.46-32.21-60.82-.47-20.89-1.39-87.36,13.35-100.8l.18-.15c13.73-12.06,42.97-9.43,51.15,7.27,1.01,2.09,1.64,5.09,1.99,8.76,2.12,22.59-6.82,70.41-8.33,85.08Z"/>
          <path class="cls-26" d="M654.96,216.22c-6.2-27.3-14.94-54.57-28.21-78.52-2.24-4.08-4.67-7.81-7.57-11.15-1.54-1.79-3.22-3.47-5.09-5.03-5.51-4.7-12.74-7.16-19.73-7.67-1.16-.08-2.32-.17-3.31-.03-.19-.01-.39-.02-.58-.04-6-.65-12.3.18-17.94,2.56-4.82,2.01-9.02,6-12.64,10.24-7.19,8.58-14.16,18.69-20.61,29.5-.05.07-.07.11-.07.11-19.4,32.52-34.19,71.37-36.74,94.21-1.8,16.63,17.98,23.65,31.72,25.09,12.38,1.33,20.88-5.57,25.65-17.46.97-2.51,1.96-5.44,2.97-8.59,2.75-.23,7.99.15,9.73.28,9.91.51,19.58,1.65,29.4,3.44.18,2.8.58,5.41.97,8.02,2.84,17.17,14.71,22.98,28.34,20.54,10.65-1.59,21.16-1.25,25.96-10.99,6.15-12.01.72-41.83-2.25-54.51ZM594.04,206.4c-5.85,0-11.61-1.28-17.23-1.69-.39-.03-1.57.1-2.35.05.9-4.23,1.97-8.24,3.01-11.81,6.84-24.2,14.76-36.51,19.43-4.38.79,5.21,1.33,11.26,1.83,17.74-1.94-.14-3.9-.07-4.69.09Z"/>
        </g>
        <path class="cls-22" d="M133.5,116.53c-10.4-1.85-24.44-2.51-39.31,2.56-31.93,10.88-54.62,43.65-60.01,83.87-3.45-55.35,34.85-102.31,87.46-91.29,1.44.3,2.88.72,4.33,1.23l7.53,3.63Z"/>
        <ellipse class="cls-21" cx="84.23" cy="123.78" rx="10.38" ry="5.57" transform="translate(-42.79 44.51) rotate(-23.8)"/>
        <ellipse class="cls-21" cx="97.93" cy="118.28" rx="2.82" ry="1.52" transform="translate(-31.54 35.7) rotate(-17.85)"/>
        <path class="cls-22" d="M272.75,104.91c-12.97-2.77-45.29-7.7-77.03,9.37-8.59,4.62-15.54,9.99-21.06,15.14,1.25-6.77,3.08-12.4,5.67-16.14,8.01-11.7,39.48-15.6,53.23-15.55,8.92.26,32.28.62,39.19,7.18Z"/>
        <ellipse class="cls-21" cx="194.1" cy="114.96" rx="6.85" ry="3.77" transform="translate(-29.76 87.13) rotate(-23.55)"/>
        <ellipse class="cls-21" cx="203.53" cy="110.19" rx="2.67" ry="1.47" transform="translate(-27.07 90.5) rotate(-23.55)"/>
        <path class="cls-22" d="M404.69,113.62c-15.95-3.88-61.01-12.55-97.48,12.87-4.47,3.12-9.09,6.94-13.63,11.66.37-7.22,1.32-14.84,3.81-17.64,10.17-12.39,50.3-15.68,65.5-15.99,13.8-.56,29.77,1.39,41.8,9.1Z"/>
        <path class="cls-22" d="M505.05,119.15c-3.03-3.75-8.91-9.95-18.27-14.1-15.85-7.03-30.53-3.23-34.87-1.93,13.73-12.06,42.97-9.43,51.15,7.27,1.01,2.09,1.64,5.09,1.99,8.76Z"/>
        <ellipse class="cls-21" cx="312.56" cy="122.33" rx="6.85" ry="3.77" transform="translate(-22.84 135.07) rotate(-23.55)"/>
        <ellipse class="cls-21" cx="321.98" cy="117.56" rx="2.67" ry="1.47" transform="translate(-20.15 138.44) rotate(-23.55)"/>
        <ellipse class="cls-21" cx="489.95" cy="107.41" rx="3.77" ry="6.85" transform="translate(239.74 542.13) rotate(-72.44)"/>
        <ellipse class="cls-21" cx="480.08" cy="103.66" rx="1.47" ry="2.67" transform="translate(236.43 530.1) rotate(-72.44)"/>
        <path class="cls-22" d="M619.18,126.55c-40.84-25.66-78.04,26.86-79.9,29.53,6.45-10.81,13.42-20.92,20.61-29.5,3.62-4.24,7.82-8.23,12.64-10.24,5.64-2.38,11.94-3.21,17.94-2.56.19.02.39.03.58.04.99-.14,2.15-.05,3.31.03,6.99.51,14.22,2.97,19.73,7.67,1.87,1.56,3.55,3.24,5.09,5.03Z"/>
        <ellipse class="cls-21" cx="579.23" cy="122.28" rx="6.85" ry="3.77" transform="translate(-11.19 165.46) rotate(-16.1)"/>
        <ellipse class="cls-21" cx="569.88" cy="126.95" rx="2.67" ry="1.47" transform="translate(38.5 368.86) rotate(-37.04)"/>
      </g>
      <g class="cls-31">
        <path class="cls-12" d="M349.47,69.59s3.55,2.6,2.32,6.11l1.32-1.51-.07-3.13-2.77-1.42-.8-.05h0Z"/>
      </g>
      <g>
        <path class="cls-3" d="M211.46,70.45c-.24-.32-.49-.63-.75-.94-1.12-1.31-2.46-2.45-3.92-3.35-1.01-.62-2.1-1.14-3.24-1.49.61,1.52.53,3.13-.17,4.6.85-.14,1.73-.07,2.59.21.12.04.23.08.34.14.74.34,1.39.76,1.92,1.29.88-.55,1.99-.74,3.22-.46h0Z"/>
        <path class="cls-16" d="M201.27,44.61c-.03-.91-.11-1.82-.27-2.67-.07-.36-.36-1.56-.68-1.82-.23-.01-.77.24-.95.34-2.23,1.19-3.4,5.39-4.1,9.03,1.86.09,3.72.36,5.54.76.23-1.83.4-3.68.45-5.52,0-.03,0-.07,0-.1h0Z"/>
        <path class="cls-16" d="M320.97,50.96c-.15-1.22-.34-2.44-.58-3.65-.29-1.47-.68-3.07-1.29-4.44-.15-.34-.7-1.44-1.07-1.63-.23.04-.7.41-.85.54-1.47,1.28-1.93,4.17-2,7.12.02.91.07,1.79.12,2.61,1.87-.35,3.78-.53,5.68-.55h0Z"/>
        <path class="cls-16" d="M294.88,43.25c-.16-.03-.32-.06-.48-.09-1.29-.25-2.56-.56-3.86-.79-.57-.1-2.57-.42-3.68-.16.37.43.76.83.95,1,1.59,1.56,3.27,2.96,4.79,4.6.68.74,1.29,1.48,1.83,2.24.03-2.3.18-4.58.45-6.81h0Z"/>
        <path class="cls-3" d="M239.49,69.32c.08,1.05.12,2.09.08,3.11.03.86.02,1.72-.04,2.56-.5,6.2-10.21,6.16-14.7,5.61-1.25-.15-3.69-.53-4.74-1.09l-.03-.02-.03-.02c-2.14-1.23-2.84-5.05-3.22-7.29,0-.01,0-.03,0-.04-.16.6-.32,1.2-.49,1.79-.51,1.74-1.39,3.53-2.59,4.89l-.03.03c-2.28,2.5-6.53,1.24-9.44.95h-.05s-.05-.01-.05-.01c-1.74-.26-3.73-.57-5.39-1.17-1.4-.51-2.67-1.32-3.21-2.78-.29-.78-.29-1.58-.15-2.37-.32-1.48.26-3,.82-4.37.16-.41.33-.81.49-1.2-1-.17-1.99-.34-2.99-.5,0,.35.02.69.02,1.04,0,.56,0,1.14,0,1.71,0,.04,0,.09,0,.13.02,1.33,0,2.7-.13,4.01-.14,1.36-.44,2.93-1.68,3.72-2.15,1.41-7.3.68-9.7.26-2.68-.47-8.41-1.62-9.42-4.58-.18-.52-.34-1.09-.35-1.64-.04-1.38-.06-2.86-.05-4.42-.15-17.87,3.89-47.77,25.1-50,5-.53,9.89.4,13.81,3.69,1.82,1.53,3.26,3.41,4.4,5.51.35-3.72.93-7,1.87-8.68,1.88-3.33,7.12-4.06,10.55-3.92,3.9.15,9.46,1.58,10.5,6,.21.91.21,2.14.17,3.21.05.93,0,1.93-.04,2.73-.07,1.57-.2,3.13-.33,4.7,1.07-1.28,2.14-2.57,3.22-3.84,1.79-2.12,3.61-4.25,5.52-6.26,1.1-1.16,3.08-3.26,4.61-3.75,4.23-1.35,8.86,2.63,11.2,5.82.71.97,1.2,2.06,1.44,3.24.17.86.2,1.73.11,2.6.13,1.24-.02,2.48-.36,3.71,2.04-4.92,6.04-8.86,10.85-11.19,6.88-3.33,14.74-3.16,21.81-.5,1.91.72,5.19,2.01,5.89,4.12,2.13-2.12,4.76-3.79,7.95-4.89,3.73-1.28,7.59-1.67,11.28-.66.88-.44,1.61-1.08,2.06-1.88l.02-.04s.04-.08.06-.12c.23-.52.32-1.04.2-1.46-.17-.61-.58-.95-1.03-1.06-.65-.17-1.28.38-1.26.8v.03s0,.01,0,.01h.02c.18-.05.44-.3.8-.35.46-.08.88.33.9.78.02.59-.32,1.16-.79,1.51-.64.4-1.47.22-2.04-.23-.76-.58-1.08-1.65-.9-2.58.22-.9.97-1.58,1.78-1.97,1.22-.57,2.73-.23,3.71.65,1.36,1.23,1.31,3.34.28,4.76-.54.8-1.36,1.33-2.25,1.66.19.07.38.15.57.23.57-.18,1.06-.47,1.44-.78.95-.78,1.44-1.69,1.74-2.83.16-.59.09-1.14.28-1.84.15-.53.85-.77,1.27-.4.53.44.65,1.2.62,1.85-.21,2.34-2.1,3.98-4.26,4.53.23.12.46.25.69.39.19-.35.58-.57,1-.53.57.05.99.56.94,1.13-.02.21-.1.41-.23.57.18.14.37.29.55.44-.15-2.29.86-4.68,3.09-5.58.62-.21,1.37-.32,1.95.06.47.3.44,1.04-.03,1.34-.62.39-1.16.48-1.68.8-1.01.61-1.73,1.35-2.2,2.48-.19.45-.32,1-.33,1.6.17.16.34.32.51.49-.01-.44.04-.87.17-1.3.48-1.7,2.1-3.03,3.9-2.73,1.3.23,2.5,1.21,2.81,2.53.19.88.13,1.89-.44,2.62-.61.72-1.65,1.13-2.57.89-.7-.17-1.36-.71-1.45-1.47-.02-.58.21-1.21.69-1.55.37-.27.95-.19,1.17.22.18.32.16.68.23.85v.02s0,0,0,0h.02s.03-.02.03-.02c.34-.25.38-1.09-.15-1.49-.36-.3-.88-.4-1.47-.16-.4.17-.75.56-1.02,1.06-.02.04-.04.07-.06.11l-.02.04c-.26.64-.36,1.34-.3,2.07,4.51,5.48,6.95,13.31,8.28,19.71.89,4.26,1.46,8.62,1.75,12.96.17,2.45.26,4.94.23,7.41.02,1.73-.01,3.45-.12,5.16-.11,1.81-.57,3.75-1.44,5.35v.02s-.02.02-.02.02c-1.67,2.94-6.1,2.67-8.99,3.03h-.05s-.05.01-.05.01c-1.76.14-3.77.28-5.52.06-1.48-.18-2.9-.68-3.75-1.99-.71-1.09-.76-2.35-.63-3.59-.14-1.04.02-2.14.19-3.17.07-.42.14-.84.2-1.26-1.01.06-2.01.11-3.01.18.08.33.17.66.25.99.31,1.29.61,2.63.76,3.94.08.69.14,1.45.04,2.16.13,1.28.1,2.72-.84,3.68-1.78,1.85-6.97,2.3-9.4,2.42-2.72.14-8.56.31-10.2-2.36-.28-.46-.57-.99-.7-1.52-.83-3.17-1.65-6.9-2.29-10.92-1.79,4-4.83,7.65-8.54,9.93-5.44,3.35-12.09,4.16-18.35,3.54-2.67-.26-7.66-.68-10.05-2.58-1.07.81-2.27,1.41-3.53,1.49-4.57.31-10.07-4.89-13.05-7.92-.9-.92-1.79-1.87-2.67-2.84h0ZM263.52,34.21c-1.46,3.38-4.17,6.53-6.41,8.82-2.09,2.14-4.44,4.21-6.86,6.11.02.02.04.03.06.04,1.62,1.28,3.29,2.51,4.96,3.72,2.26,1.65,4.58,3.27,6.81,4.97,2.26-.45,5.31.05,7.21.27.53.06,1.87.22,3.15.29-.13-.12-.24-.21-.33-.29-.72-.62-1.45-1.22-2.17-1.83-.6-.51-1.26-1.06-1.78-1.64-3.6-4.02-5.67-9.01-5.4-14.27-.09-1.66.06-3.36.46-5.08.09-.38.19-.75.3-1.12h0Z"/>
        <path class="cls-16" d="M239.49,69.32c.08,1.05.12,2.09.08,3.11.03.86.02,1.72-.04,2.56-.5,6.2-10.21,6.16-14.7,5.61-1.25-.15-3.69-.53-4.74-1.09l-.03-.02-.03-.02c-2.14-1.23-2.84-5.05-3.22-7.29,0-.01,0-.03,0-.04-.16.6-.32,1.2-.49,1.79-.51,1.74-1.39,3.53-2.59,4.89l-.03.03c-2.28,2.5-6.53,1.24-9.44.95h-.05s-.05-.01-.05-.01c-1.74-.26-3.73-.57-5.39-1.17-1.4-.51-2.67-1.32-3.21-2.78-.29-.78-.29-1.58-.15-2.37-.32-1.48.26-3,.82-4.37.16-.41.33-.81.49-1.2-1-.17-1.99-.34-2.99-.5,0,.35.02.69.02,1.04,0,.56,0,1.14,0,1.71,0,.04,0,.09,0,.13.02,1.33,0,2.7-.13,4.01-.14,1.36-.44,2.93-1.68,3.72-2.15,1.41-7.3.68-9.7.26-2.68-.47-8.41-1.62-9.42-4.58-.18-.52-.34-1.09-.35-1.64-.04-1.38-.06-2.86-.05-4.42-.15-17.87,3.89-47.77,25.1-50,5-.53,9.89.4,13.81,3.69,1.82,1.53,3.26,3.41,4.4,5.51.35-3.72.93-7,1.87-8.68,1.88-3.33,7.12-4.06,10.55-3.92,3.9.15,9.46,1.58,10.5,6,.21.91.21,2.14.17,3.21.05.93,0,1.93-.04,2.73-.07,1.57-.2,3.13-.33,4.7,1.07-1.28,2.14-2.57,3.22-3.84,1.79-2.12,3.61-4.25,5.52-6.26,1.1-1.16,3.08-3.26,4.61-3.75,4.23-1.35,8.86,2.63,11.2,5.82.71.97,1.2,2.06,1.44,3.24.17.86.2,1.73.11,2.6.13,1.24-.02,2.48-.36,3.71,2.04-4.92,6.04-8.86,10.85-11.19,6.88-3.33,14.74-3.16,21.81-.5,1.91.72,5.19,2.01,5.89,4.12,2.13-2.12,4.76-3.79,7.95-4.89,3.73-1.28,7.59-1.67,11.28-.66.88-.44,1.61-1.08,2.06-1.88l.02-.04s.04-.08.06-.12c.23-.52.32-1.04.2-1.46-.17-.61-.58-.95-1.03-1.06-.65-.17-1.28.38-1.26.8v.03s0,.01,0,.01h.02c.18-.05.44-.3.8-.35.46-.08.88.33.9.78.02.59-.32,1.16-.79,1.51-.64.4-1.47.22-2.04-.23-.76-.58-1.08-1.65-.9-2.58.22-.9.97-1.58,1.78-1.97,1.22-.57,2.73-.23,3.71.65,1.36,1.23,1.31,3.34.28,4.76-.54.8-1.36,1.33-2.25,1.66.19.07.38.15.57.23.57-.18,1.06-.47,1.44-.78.95-.78,1.44-1.69,1.74-2.83.16-.59.09-1.14.28-1.84.15-.53.85-.77,1.27-.4.53.44.65,1.2.62,1.85-.21,2.34-2.1,3.98-4.26,4.53.23.12.46.25.69.39.19-.35.58-.57,1-.53.57.05.99.56.94,1.13-.02.21-.1.41-.23.57.18.14.37.29.55.44-.15-2.29.86-4.68,3.09-5.58.62-.21,1.37-.32,1.95.06.47.3.44,1.04-.03,1.34-.62.39-1.16.48-1.68.8-1.01.61-1.73,1.35-2.2,2.48-.19.45-.32,1-.33,1.6.17.16.34.32.51.49-.01-.44.04-.87.17-1.3.48-1.7,2.1-3.03,3.9-2.73,1.3.23,2.5,1.21,2.81,2.53.19.88.13,1.89-.44,2.62-.61.72-1.65,1.13-2.57.89-.7-.17-1.36-.71-1.45-1.47-.02-.58.21-1.21.69-1.55.37-.27.95-.19,1.17.22.18.32.16.68.23.85v.02s0,0,0,0h.02s.03-.02.03-.02c.34-.25.38-1.09-.15-1.49-.36-.3-.88-.4-1.47-.16-.4.17-.75.56-1.02,1.06-.02.04-.04.07-.06.11l-.02.04c-.26.64-.36,1.34-.3,2.07,4.51,5.48,6.95,13.31,8.28,19.71.89,4.26,1.46,8.62,1.75,12.96.17,2.45.26,4.94.23,7.41.02,1.73-.01,3.45-.12,5.16-.11,1.81-.57,3.75-1.44,5.35v.02s-.02.02-.02.02c-1.67,2.94-6.1,2.67-8.99,3.03h-.05s-.05.01-.05.01c-1.76.14-3.77.28-5.52.06-1.48-.18-2.9-.68-3.75-1.99-.71-1.09-.76-2.35-.63-3.59-.14-1.04.02-2.14.19-3.17.07-.42.14-.84.2-1.26-1.01.06-2.01.11-3.01.18.08.33.17.66.25.99.31,1.29.61,2.63.76,3.94.08.69.14,1.45.04,2.16.13,1.28.1,2.72-.84,3.68-1.78,1.85-6.97,2.3-9.4,2.42-2.72.14-8.56.31-10.2-2.36-.28-.46-.57-.99-.7-1.52-.83-3.17-1.65-6.9-2.29-10.92-1.79,4-4.83,7.65-8.54,9.93-5.44,3.35-12.09,4.16-18.35,3.54-2.67-.26-7.66-.68-10.05-2.58-1.07.81-2.27,1.41-3.53,1.49-4.57.31-10.07-4.89-13.05-7.92-.9-.92-1.79-1.87-2.67-2.84h0ZM263.52,34.21c-1.46,3.38-4.17,6.53-6.41,8.82-2.09,2.14-4.44,4.21-6.86,6.11.02.02.04.03.06.04,1.62,1.28,3.29,2.51,4.96,3.72,2.26,1.65,4.58,3.27,6.81,4.97,2.26-.45,5.31.05,7.21.27.53.06,1.87.22,3.15.29-.13-.12-.24-.21-.33-.29-.72-.62-1.45-1.22-2.17-1.83-.6-.51-1.26-1.06-1.78-1.64-3.6-4.02-5.67-9.01-5.4-14.27-.09-1.66.06-3.36.46-5.08.09-.38.19-.75.3-1.12h0Z"/>
        <path class="cls-6" d="M313.23,56.18c3.36-.98,6.95-1.26,10.41-1.03-.2-2.81-1.44-20.71-7.94-15.07-3.69,3.24-2.77,11.68-2.47,16.1h0ZM314.73,67.33c.39,1.81,2.98,10.1,1.91,11.16-1.72,1.83-14.69,2.69-16.06.45-.13-.22-.38-.65-.44-.88-4.01-15.27-8.47-47.38,11.26-54.17,24.05-8.22,28.39,31.26,27.47,46.61-.09,1.48-.47,3.11-1.17,4.4-1,1.76-5.49,1.68-7.3,1.9-10.78.86-6.91-1.54-6.58-10.23-3,.41-6.1.35-9.1.75h0ZM192.32,53.59c.69-4.38,1.67-12.81,5.99-15.14,7.59-4.05,4.83,13.68,4.39,16.47-3.32-1-6.88-1.52-10.38-1.32h0ZM245.51,49.82c5.47-3.81,21.16-16.3,15.64-23.82-1.67-2.28-5.58-6.01-8.69-5-2.65.82-13.91,15.4-17.03,18.65.08-3.44,1.54-14.71.99-17.07-1.24-5.27-14.62-5.54-16.89-1.48-2.13,3.74-2.12,19.14-2.1,24.09,0,.28.01.63.01,1.05-.52-13.63-5.19-26.05-19.73-24.53-20.75,2.2-23.54,34.5-23.03,50.28,0,.24.15.72.23.96.84,2.48,13.67,4.56,15.75,3.15,1.28-.79.6-9.46.62-11.3,3.01.28,6.02,1.03,9.03,1.31-2.25,8.39-6.56,9.86,4.14,11.44,1.83.18,6.18,1.27,7.54-.22.97-1.1,1.7-2.61,2.12-4.03,1.65-5.65,3.33-14.89,3.37-24.01.17,8.77.77,26.57,3.64,28.23.66.35,3.15.74,3.95.84,2.97.36,11.82.71,12.17-3.55.3-3.77-.95-9.28-1.22-13.25,3.4,4.55,13.44,16.64,19,16.26,1.32-.09,2.91-1.31,4.36-3.02.05.79.17,1.39.37,1.66,1.21,1.71,7.12,2.23,9.21,2.46,5.73.54,11.92-.11,16.95-3.21,3.6-2.22,6.49-5.9,8.04-9.84,5.66-14.5-12.5-18.67-9.88-24.19,1.98-4.22,11.48.25,13.17-.64.8-.42,3.43-12.94,3.31-13.65-.25-1.08-3.58-2.37-4.55-2.75-22.18-8.34-39.97,13.13-26.2,28.52,1.49,1.63,7.47,5.67,7.18,7.66-.49,4-12.63-.34-15.37,1.43-3.96-3.11-13.62-9.62-16.13-12.42h0Z"/>
        <path class="cls-10" d="M313.23,54.33c3.36-.98,6.95-1.26,10.41-1.03-.2-2.81-1.44-20.71-7.94-15.07-3.69,3.24-2.77,11.68-2.47,16.1h0ZM314.73,65.49c.39,1.81,2.98,10.1,1.91,11.16-1.72,1.84-14.69,2.69-16.06.46-.13-.22-.38-.65-.44-.88-4.01-15.26-8.47-47.38,11.26-54.17,24.05-8.22,28.39,31.26,27.47,46.61-.09,1.48-.47,3.11-1.17,4.4-1,1.76-5.49,1.68-7.3,1.9-10.78.86-6.91-1.54-6.58-10.23-3,.41-6.1.35-9.1.74h0ZM192.32,51.74c.69-4.38,1.67-12.8,5.99-15.14,7.59-4.05,4.83,13.68,4.39,16.46-3.32-1-6.88-1.53-10.38-1.33h0ZM245.51,47.98c5.47-3.81,21.16-16.3,15.64-23.82-1.67-2.28-5.58-6.01-8.69-5-2.65.82-13.91,15.4-17.03,18.65.08-3.44,1.54-14.71.99-17.07-1.24-5.27-14.62-5.54-16.89-1.48-2.13,3.74-2.12,19.14-2.1,24.09,0,.28.01.63.01,1.05-.52-13.63-5.19-26.04-19.73-24.53-20.75,2.2-23.54,34.5-23.03,50.28,0,.24.15.72.23.96.84,2.48,13.67,4.56,15.75,3.15,1.28-.79.6-9.46.62-11.3,3.01.28,6.02,1.03,9.03,1.31-2.25,8.39-6.56,9.86,4.14,11.44,1.83.18,6.18,1.27,7.54-.22.97-1.1,1.7-2.6,2.12-4.03,1.65-5.65,3.33-14.89,3.37-24.01.17,8.77.77,26.57,3.64,28.23.66.35,3.15.74,3.95.85,2.97.36,11.82.71,12.17-3.55.3-3.77-.95-9.28-1.22-13.25,3.4,4.55,13.44,16.64,19,16.26,1.32-.09,2.91-1.31,4.36-3.02.05.79.17,1.39.37,1.66,1.21,1.71,7.12,2.23,9.21,2.46,5.73.54,11.92-.12,16.95-3.22,3.6-2.22,6.49-5.9,8.04-9.83,5.66-14.5-12.5-18.67-9.88-24.19,1.98-4.22,11.48.25,13.17-.64.8-.42,3.43-12.94,3.31-13.65-.25-1.08-3.58-2.37-4.55-2.75-22.18-8.34-39.97,13.13-26.2,28.52,1.49,1.63,7.47,5.67,7.18,7.66-.49,4-12.63-.34-15.37,1.43-3.96-3.11-13.62-9.62-16.13-12.42h0Z"/>
        <g class="cls-25">
          <path class="cls-13" d="M157,31.32s58.71-5.84,100.26,8.16c41.55,14,94.31-9.29,94.31-9.29,0,0-2.58,44.13-4.19,44.51-1.62.38-125.35,2.56-125.35,2.56l-58.57-4.66-6.45-41.28h0Z"/>
          <path class="cls-7" d="M156.94,57.42s36.08-20,66.24-7.09c30.16,12.91,79.93,13.15,104.13-.95,24.2-14.09,51.55-2.16,51.55-2.16,0,0-10.24,35.01-13.77,37.66-3.52,2.65-176.43,10.11-176.43,10.11,0,0-63.17-12.12-55.09-14.98,8.09-2.86,23.37-22.59,23.37-22.59h0Z"/>
          <path class="cls-8" d="M174.67,63.73s.35,5.87,4.39,7.33c3.59,1.29,8.34,1.63,9.77.22,1.43-1.41,2.62-4.52,2.62-4.52,0,0,.81.77.81.99,0,.22.15,7.63.15,7.63l-9.73,1.09-9.3-3.05,1.29-9.68h0Z"/>
          <path class="cls-8" d="M199.05,67.91s-.21,2.43.82,3.99c1.04,1.56,9.01,2.92,11.41,1.42,2.4-1.5,3.4-3.9,3.4-3.9l.25,3.27-1.78,5.06-10.26-.02-8.28-3.15,1.55-5.8,2.88-.88h0Z"/>
          <path class="cls-8" d="M218.66,67.06s1.66,5.59,5.6,6.65c3.94,1.06,10.57.51,11.57-1.47,1-1.97.97-6.74.97-6.74,0,0,2.19,4.79,2.27,5.12.08.32-1.22,4.3-.65,4.65.57.36-5.34,3.32-7.83,3.45-2.49.13-10.91-1.5-11.17-2.35l-2.16-6.93,1.39-2.38h0Z"/>
          <g>
            <path class="cls-8" d="M225.7,73.26c-.13,0-.25,0-.36.02-.13-.62-.86-1.32-1.89-1.72-1.3-.52-2.58-.38-2.86.32-.27.7.56,1.68,1.86,2.2.66.26,1.31.35,1.83.29.26.25.79.42,1.4.43.88.01,1.6-.32,1.6-.74,0-.42-.7-.77-1.58-.79Z"/>
            <path class="cls-8" d="M232.81,73.07c-.73.22-1.22.71-1.11,1.12.12.4.8.55,1.53.34.73-.21,1.22-.71,1.11-1.11-.12-.4-.8-.55-1.53-.34Z"/>
            <path class="cls-8" d="M233.89,71.82c-.27.09-.46.26-.42.39.04.13.3.15.57.06.27-.09.46-.26.42-.39-.04-.12-.3-.15-.57-.06Z"/>
            <path class="cls-8" d="M252.7,73.05c.37,0,.67-.1.67-.23,0-.13-.3-.25-.67-.25-.37,0-.67.1-.67.23,0,.13.3.25.67.25Z"/>
            <path class="cls-8" d="M253.83,71.83c.13,0,.23-.03.23-.08,0-.05-.1-.09-.23-.09-.13,0-.23.03-.23.08,0,.05.1.09.23.09Z"/>
            <path class="cls-8" d="M256.77,73.94s0,0,0,0c0-.31-.69-.57-1.55-.58-.86-.01-1.56.23-1.57.54,0,.01,0,.02,0,.04-4.8-.75-9.19-4.48-9.23-4.54l-.27.9,5.55,6.43,8.01.81,1.7-4.57c-.85.51-1.74.82-2.65.97Z"/>
          </g>
          <path class="cls-8" d="M260.87,75.44s23.42,2.49,32.07-9.16l.49,7.9s-13.23,6.16-14.24,6.41c-1.01.26-16.35-1.83-16.35-1.83l-1.97-3.34h0Z"/>
          <path class="cls-8" d="M298.96,71.22s2.84,5.4,8.51,5.2c5.67-.2,8.32-.79,8.54-5.94l2.15,3.89-.59,4.07s-14.68,1.73-14.92,1.69c-.23-.04-3.56-2.6-3.58-3.01-.03-.4-.12-5.9-.12-5.9h0Z"/>
          <path class="cls-8" d="M323.52,68.08s.33,4.32,2.97,5.18c2.64.86,10.91.73,12.43-5.41l.34,5.69s-5.57,3.06-6.78,2.74c-1.2-.32-12.4-.53-12.4-.53l1.41-5.64,2.03-2.03h0Z"/>
          <path class="cls-15" d="M178.02,32s24.12-19.79,36.48-2.48l3.81-5.7s3.48-6.16,10.49-5.27c7.01.9,7.65,6.43,7.65,6.43l9.08.94s6.56-3.97,9.54-3.36c2.98.61,5.83,2.04,7.21,4.68,1.38,2.64,9.92-1.67,9.92-1.67,0,0,13.19-5.2,20.63-2.11,7.44,3.09,7.45,4.12,7.45,4.12l1.15,2.49s12.32-12.59,25.96-5.17l-7.35-14.76-137.12-.42-4.91,22.29h0Z"/>
        </g>
        <path class="cls-8" d="M179.69,69.49c1.32.45,2.2,1.35,1.97,2.02-.23.67-1.48.85-2.79.4-1.32-.45-2.2-1.35-1.97-2.02.23-.67,1.48-.85,2.79-.4h0Z"/>
        <path class="cls-8" d="M182.53,71.24c.79.15,1.36.59,1.29.99-.07.4-.77.6-1.56.46-.79-.15-1.36-.59-1.29-.99.07-.4.77-.6,1.56-.46h0Z"/>
        <path class="cls-8" d="M202.39,71.88c1.26.38,2.16,1.1,2.01,1.61-.15.51-1.3.62-2.56.24-1.26-.38-2.16-1.1-2.01-1.61.15-.51,1.3-.62,2.56-.24h0Z"/>
        <path class="cls-8" d="M205.03,73.03c.48,0,.87.33.86.73,0,.4-.4.71-.88.71-.48,0-.87-.33-.86-.73,0-.4.4-.71.88-.71h0Z"/>
        <path class="cls-8" d="M206.95,72.32c.34,0,.6.23.6.51,0,.28-.28.5-.61.49-.34,0-.6-.23-.6-.51,0-.28.28-.5.61-.49h0Z"/>
        <path class="cls-8" d="M206.28,70.64c.17,0,.31.12.31.26,0,.14-.14.25-.31.25-.17,0-.31-.12-.31-.26,0-.14.14-.25.31-.25h0Z"/>
        <path class="cls-8" d="M264.81,75.15c.85.01,1.54.3,1.53.65,0,.35-.7.62-1.55.61-.85-.01-1.54-.3-1.53-.65,0-.35.7-.62,1.55-.61h0Z"/>
        <path class="cls-8" d="M266.22,74.91c.3,0,.54.24.54.52,0,.28-.25.51-.55.5-.3,0-.54-.24-.54-.52,0-.28.25-.51.55-.5h0Z"/>
        <path class="cls-8" d="M275.1,74.07c1.49-.24,2.77.02,2.86.58.09.57-1.04,1.23-2.53,1.47-1.49.25-2.77-.02-2.86-.58-.09-.57,1.04-1.23,2.53-1.47h0Z"/>
        <path class="cls-8" d="M288.11,69.9c.86-.44,1.73-.48,1.93-.08.2.4-.33,1.08-1.19,1.53-.86.44-1.73.48-1.93.08-.2-.4.33-1.08,1.2-1.53h0Z"/>
        <path class="cls-8" d="M286.25,71.11c.51-.3,1.03-.35,1.17-.11.14.24-.16.67-.67.96-.51.3-1.03.35-1.17.11-.14-.24.16-.67.67-.96h0Z"/>
        <path class="cls-8" d="M303.09,74.12c.83.27,1.38.89,1.22,1.38-.16.49-.96.66-1.79.38-.83-.27-1.38-.89-1.22-1.38.16-.49.96-.66,1.79-.38h0Z"/>
        <path class="cls-8" d="M308.99,75.55c1.05-.06,1.92.18,1.93.53.02.35-.82.68-1.87.73-1.05.06-1.92-.18-1.93-.53-.02-.35.82-.67,1.87-.73h0Z"/>
        <path class="cls-8" d="M310.94,74.74c.39,0,.7.15.7.32,0,.17-.32.3-.7.3-.39,0-.7-.15-.7-.32,0-.17.32-.3.7-.3h0Z"/>
        <path class="cls-8" d="M310.08,73.93c.12,0,.21.06.21.13,0,.07-.1.13-.22.13-.12,0-.21-.06-.21-.13,0-.07.1-.13.22-.13h0Z"/>
        <path class="cls-8" d="M326.95,71.77c1.31.02,2.37.58,2.36,1.26,0,.68-1.08,1.21-2.4,1.2-1.31-.02-2.37-.58-2.37-1.26,0-.68,1.08-1.21,2.4-1.2h0Z"/>
        <path class="cls-8" d="M329.21,72.63c.77.01,1.39.39,1.38.84,0,.46-.63.82-1.4.81-.77-.01-1.39-.39-1.38-.84,0-.46.63-.82,1.4-.81h0Z"/>
        <path class="cls-8" d="M335.95,71.09c.7-.49,1.43-.66,1.64-.37.2.29-.2.92-.9,1.42-.7.5-1.43.66-1.63.37-.2-.29.2-.92.9-1.42h0Z"/>
        <path class="cls-15" d="M190.94,22.42c-1.1.31-1.81,1.2-1.59,2,.22.8,1.29,1.19,2.39.89.68-.19,1.21-.61,1.47-1.09.26.15.62.19,1,.08.61-.17,1.01-.67.89-1.12-.12-.45-.72-.67-1.34-.5-.23.06-.42.17-.57.3-.38-.58-1.3-.83-2.24-.57h0ZM315.61,22.04c-.73.1-1.28.49-1.23.85.05.36.69.57,1.41.47.73-.11,1.28-.49,1.23-.85-.05-.36-.69-.57-1.41-.47h0ZM309.61,23.94c-.39,0-.72.29-.72.66h0c-.48-.17-1.19-.12-1.91.18-1.08.46-1.76,1.31-1.51,1.91.25.6,1.33.72,2.42.26.96-.4,1.6-1.12,1.56-1.7.05.01.1.02.15.02.39,0,.72-.29.72-.66,0-.37-.31-.67-.7-.67h0ZM290.37,21.46c1.31.15,2.32.76,2.25,1.36-.07.6-1.19.97-2.5.82-.28-.03-.54-.08-.78-.15-.27.4-.88.63-1.57.56-.87-.1-1.53-.67-1.46-1.27.07-.6.83-1.01,1.7-.91.03,0,.06,0,.09.01.41-.35,1.28-.53,2.26-.42h0ZM280.34,22.74c-.27,0-.51.15-.6.37-.38-.33-1.12-.47-1.92-.31-1.08.22-1.85.9-1.72,1.52.13.62,1.1.94,2.17.72.92-.19,1.61-.71,1.72-1.24.09.06.21.09.33.09.35,0,.63-.25.64-.57,0-.32-.27-.58-.62-.59h0ZM258.14,22.98c.71.28,1.18.77,1.05,1.11-.13.34-.81.38-1.52.11-.71-.28-1.18-.77-1.05-1.11.13-.34.81-.38,1.52-.11h0ZM251.39,23.86c-.18,0-.33.14-.33.32,0,.18.14.33.32.33.18,0,.32-.14.33-.32,0-.18-.14-.33-.32-.33h0ZM249.06,22.92c-.75.27-1.22.85-1.06,1.29.16.44.89.58,1.64.31.74-.27,1.22-.85,1.06-1.29-.16-.44-.89-.58-1.64-.31h0ZM233.38,19.55c.34.15.54.45.45.67-.09.22-.45.28-.79.13-.08-.04-.16-.08-.22-.13-.32.11-.75.08-1.18-.11-.7-.3-1.11-.92-.92-1.37.19-.45.92-.57,1.62-.27.54.24.91.65.96,1.04.03,0,.06.02.08.03h0ZM223.64,21.37c-.12.05-.2.15-.17.22.03.07.15.08.28.03.12-.05.2-.15.17-.22-.03-.07-.15-.08-.28-.03h0ZM224.47,19.79c-.25.11-.41.32-.34.46.06.14.32.17.57.06.25-.11.41-.31.34-.46-.06-.14-.32-.17-.57-.06h0ZM221.99,19.16c-.71.31-1.15.89-.98,1.29.17.4.89.47,1.61.16.71-.31,1.15-.89.98-1.29-.17-.4-.89-.47-1.61-.16h0ZM206.24,20.89c-1.37-.54-2.8-.18-3.19.82-.39.99.4,2.24,1.77,2.78,1.37.54,2.8.18,3.19-.82.39-.99-.4-2.24-1.77-2.78h0Z"/>
        <path class="cls-5" d="M502.74,43.32c-.1-1.51-.35-3.74-.89-4.5-.19.07-.43.2-.54.27-1.83,1.1-2.74,4.73-3.25,8.03,1.51.03,3.03.17,4.52.41.1-1.4.16-2.8.15-4.2h0Z"/>
        <path class="cls-5" d="M393.97,45.8c-1.29,3.28-3.26,6.15-5.83,8.57,1.48.97,2.97,1.93,4.51,2.76.19-3.6.59-7.48,1.31-11.34h0Z"/>
        <path class="cls-5" d="M477.32,42.86c-1.29,3.29-3.26,6.17-5.83,8.6,1.48.97,2.97,1.93,4.51,2.76.19-3.61.59-7.49,1.32-11.36h0Z"/>
        <path class="cls-3" d="M478.95,32.91c.1,1.11.08,2.22-.03,3.34,3-9.8,8.71-18.24,19.29-19.86,4.91-.75,9.74-.07,13.76,3,7.47,5.69,9.27,17.35,9.52,26.14,0,.16,0,.31.01.47.02.46.04.92.05,1.37.21,7.35-.52,15.7-2.25,22.87-.42,1.76-1.22,3.57-2.35,4.99l-.03.04c-2.22,2.67-6.39,1.65-9.37,1.49h-.06s-.06,0-.06,0c-2.83-.28-7.49-.6-8.79-3.65-.35-.83-.4-1.67-.28-2.51-.35-1.47.13-2.97.62-4.37.07-.21.15-.42.22-.62-.62-.08-1.24-.15-1.86-.23,0,.15.02.29.03.44.05.76.08,1.54.09,2.32.06,1.14.1,2.31.03,3.44-.08,1.45-.35,3.06-1.62,3.96-2.13,1.54-7.13,1.08-9.6.77-2.57-.33-7.53-1.08-9.23-3.55-1.2,1.68-2.65,3.22-4.11,3.46-1.35.22-2.98-.37-4.23-.87-.87-.35-1.71-.74-2.56-1.12-3.26-1.44-6.38-3.19-9.29-5.24.02.08.04.16.05.23.22.93.6,2.1.41,3.09,0,.03-.01.06-.02.09.12.59.19,1.2.08,1.75-.61,2.78-3.28,3.54-5.62,4.21-1.47.42-3.13.73-4.64,1-1.44.27-3.8.74-5.24.62h-.05c-.81-.08-1.58-.33-2.27-.75-2.08-1.24-3.07-3.54-3.64-5.95-.43,1.72-1.21,3.49-2.31,4.88l-.02.02-.02.02c-2.22,2.67-6.39,1.65-9.37,1.48h-.06s-.06,0-.06,0c-2.83-.28-7.49-.6-8.79-3.65-.35-.83-.4-1.67-.28-2.51-.35-1.47.13-2.97.62-4.37.07-.21.15-.41.22-.62-.62-.08-1.24-.15-1.86-.22,0,.14.02.29.03.44.04.76.08,1.54.09,2.32.06,1.14.1,2.31.03,3.44-.09,1.45-.35,3.06-1.62,3.96-2.13,1.54-7.13,1.08-9.6.77-2.57-.33-7.53-1.08-9.23-3.55-1.2,1.68-2.65,3.22-4.1,3.46-1.35.22-2.98-.37-4.23-.87-.87-.35-1.71-.75-2.56-1.12-3.26-1.44-6.38-3.19-9.29-5.24.02.08.04.15.05.23.22.93.61,2.11.41,3.1,0,.03-.01.06-.02.09.12.59.19,1.2.09,1.75-.62,2.78-3.28,3.53-5.63,4.2-1.47.42-3.13.72-4.64,1-1.44.27-3.81.74-5.24.62h-.05c-.81-.08-1.58-.34-2.28-.75-3.35-2-3.85-6.77-4.38-10.26-1-6.65-1.4-13.38-1.63-20.1-.07-2.04-.23-4.08-.36-6.12-.11-1.78-.2-3.57-.25-5.36-.06-1.48-.1-2.97-.1-4.45,0-2.25.08-4.55.34-6.81-.02-.88.03-1.76.16-2.63-.42-.83-1.03-1.5-1.8-1.85h-.03s-.07-.04-.1-.05c-.41-.14-.82-.18-1.14-.06-.46.17-.7.51-.75.87-.09.51.38.97.7.93h.02s.01,0,.01,0h0s0-.02,0-.02c-.05-.14-.25-.33-.32-.6-.09-.36.2-.71.55-.75.46-.06.92.17,1.22.51.35.47.27,1.13-.04,1.61-.4.63-1.2.95-1.93.87-.71-.11-1.29-.65-1.64-1.26-.52-.91-.36-2.11.26-2.94.86-1.14,2.5-1.24,3.66-.53.78.44,1.28,1.2,1.6,2.02.04-.15.08-.29.12-.44l-.02-.05c-.16-.59-.48-1.07-.82-1.42-.67-.69-1.4-1.01-2.3-1.16-.47-.09-.89,0-1.45-.1-.42-.09-.65-.61-.4-.96.3-.45.88-.59,1.39-.6,1.95,0,3.41,1.57,3.89,3.37.11-.28.22-.57.35-.85-.39-.06-.69-.4-.69-.81,0-.45.37-.81.81-.81.23,0,.44.1.58.25l.08-.13c.08-.15.16-.31.24-.46-1.8.33-3.8-.29-4.66-2.02-.21-.47-.34-1.05-.08-1.52.2-.38.78-.41,1.04-.07.35.46.44.87.73,1.26.54.74,1.16,1.26,2.07,1.55.37.12.82.19,1.29.15.09-.14.18-.28.28-.42-.33.03-.66.02-.99-.05-1.34-.26-2.48-1.43-2.37-2.86.09-1.03.77-2.03,1.77-2.36.67-.21,1.46-.22,2.05.17.59.43.98,1.21.86,1.95-.09.56-.46,1.11-1.04,1.22-.44.05-.95-.09-1.25-.44-.23-.27-.21-.72.09-.93.23-.16.51-.17.64-.23h.01s0,0,0,0h0s0-.03,0-.03c-.22-.25-.86-.22-1.14.22-.21.3-.25.71-.03,1.15.16.3.49.55.89.72.03.01.06.03.09.04h.03c.46.16.96.19,1.46.13.09-.09.19-.18.28-.27,2.86-2.6,7.19-2.94,10.86-3.21,2.68-.2,5.39-.18,8.06.11,9.91,1.05,19.03,5.71,22,15.9.45,1.55.63,3.12.6,4.7.1,1.1.09,2.2-.02,3.31,3-9.79,8.71-18.22,19.28-19.84,4.91-.75,9.74-.07,13.76,3,1.78,1.36,3.24,3.05,4.43,4.96.44-4.91,1.64-9.33,4.37-11.83,2.85-2.61,7.19-2.94,10.86-3.22,2.67-.2,5.37-.18,8.04.11,9.92,1.05,19.05,5.7,22.02,15.9.45,1.55.63,3.11.6,4.69h0Z"/>
        <path class="cls-5" d="M478.95,32.91c.1,1.11.08,2.22-.03,3.34,3-9.8,8.71-18.24,19.29-19.86,4.91-.75,9.74-.07,13.76,3,7.47,5.69,9.27,17.35,9.52,26.14,0,.16,0,.31.01.47.02.46.04.92.05,1.37.21,7.35-.52,15.7-2.25,22.87-.42,1.76-1.22,3.57-2.35,4.99l-.03.04c-2.22,2.67-6.39,1.65-9.37,1.49h-.06s-.06,0-.06,0c-2.83-.28-7.49-.6-8.79-3.65-.35-.83-.4-1.67-.28-2.51-.35-1.47.13-2.97.62-4.37.07-.21.15-.42.22-.62-.62-.08-1.24-.15-1.86-.23,0,.15.02.29.03.44.05.76.08,1.54.09,2.32.06,1.14.1,2.31.03,3.44-.08,1.45-.35,3.06-1.62,3.96-2.13,1.54-7.13,1.08-9.6.77-2.57-.33-7.53-1.08-9.23-3.55-1.2,1.68-2.65,3.22-4.11,3.46-1.35.22-2.98-.37-4.23-.87-.87-.35-1.71-.74-2.56-1.12-3.26-1.44-6.38-3.19-9.29-5.24.02.08.04.16.05.23.22.93.6,2.1.41,3.09,0,.03-.01.06-.02.09.12.59.19,1.2.08,1.75-.61,2.78-3.28,3.54-5.62,4.21-1.47.42-3.13.73-4.64,1-1.44.27-3.8.74-5.24.62h-.05c-.81-.08-1.58-.33-2.27-.75-2.08-1.24-3.07-3.54-3.64-5.95-.43,1.72-1.21,3.49-2.31,4.88l-.02.02-.02.02c-2.22,2.67-6.39,1.65-9.37,1.48h-.06s-.06,0-.06,0c-2.83-.28-7.49-.6-8.79-3.65-.35-.83-.4-1.67-.28-2.51-.35-1.47.13-2.97.62-4.37.07-.21.15-.41.22-.62-.62-.08-1.24-.15-1.86-.22,0,.14.02.29.03.44.04.76.08,1.54.09,2.32.06,1.14.1,2.31.03,3.44-.09,1.45-.35,3.06-1.62,3.96-2.13,1.54-7.13,1.08-9.6.77-2.57-.33-7.53-1.08-9.23-3.55-1.2,1.68-2.65,3.22-4.1,3.46-1.35.22-2.98-.37-4.23-.87-.87-.35-1.71-.75-2.56-1.12-3.26-1.44-6.38-3.19-9.29-5.24.02.08.04.15.05.23.22.93.61,2.11.41,3.1,0,.03-.01.06-.02.09.12.59.19,1.2.09,1.75-.62,2.78-3.28,3.53-5.63,4.2-1.47.42-3.13.72-4.64,1-1.44.27-3.81.74-5.24.62h-.05c-.81-.08-1.58-.34-2.28-.75-3.35-2-3.85-6.77-4.38-10.26-1-6.65-1.4-13.38-1.63-20.1-.07-2.04-.23-4.08-.36-6.12-.11-1.78-.2-3.57-.25-5.36-.06-1.48-.1-2.97-.1-4.45,0-2.25.08-4.55.34-6.81-.02-.88.03-1.76.16-2.63-.42-.83-1.03-1.5-1.8-1.85h-.03s-.07-.04-.1-.05c-.41-.14-.82-.18-1.14-.06-.46.17-.7.51-.75.87-.09.51.38.97.7.93h.02s.01,0,.01,0h0s0-.02,0-.02c-.05-.14-.25-.33-.32-.6-.09-.36.2-.71.55-.75.46-.06.92.17,1.22.51.35.47.27,1.13-.04,1.61-.4.63-1.2.95-1.93.87-.71-.11-1.29-.65-1.64-1.26-.52-.91-.36-2.11.26-2.94.86-1.14,2.5-1.24,3.66-.53.78.44,1.28,1.2,1.6,2.02.04-.15.08-.29.12-.44l-.02-.05c-.16-.59-.48-1.07-.82-1.42-.67-.69-1.4-1.01-2.3-1.16-.47-.09-.89,0-1.45-.1-.42-.09-.65-.61-.4-.96.3-.45.88-.59,1.39-.6,1.95,0,3.41,1.57,3.89,3.37.11-.28.22-.57.35-.85-.39-.06-.69-.4-.69-.81,0-.45.37-.81.81-.81.23,0,.44.1.58.25l.08-.13c.08-.15.16-.31.24-.46-1.8.33-3.8-.29-4.66-2.02-.21-.47-.34-1.05-.08-1.52.2-.38.78-.41,1.04-.07.35.46.44.87.73,1.26.54.74,1.16,1.26,2.07,1.55.37.12.82.19,1.29.15.09-.14.18-.28.28-.42-.33.03-.66.02-.99-.05-1.34-.26-2.48-1.43-2.37-2.86.09-1.03.77-2.03,1.77-2.36.67-.21,1.46-.22,2.05.17.59.43.98,1.21.86,1.95-.09.56-.46,1.11-1.04,1.22-.44.05-.95-.09-1.25-.44-.23-.27-.21-.72.09-.93.23-.16.51-.17.64-.23h.01s0,0,0,0h0s0-.03,0-.03c-.22-.25-.86-.22-1.14.22-.21.3-.25.71-.03,1.15.16.3.49.55.89.72.03.01.06.03.09.04h.03c.46.16.96.19,1.46.13.09-.09.19-.18.28-.27,2.86-2.6,7.19-2.94,10.86-3.21,2.68-.2,5.39-.18,8.06.11,9.91,1.05,19.03,5.71,22,15.9.45,1.55.63,3.12.6,4.7.1,1.1.09,2.2-.02,3.31,3-9.79,8.71-18.22,19.28-19.84,4.91-.75,9.74-.07,13.76,3,1.78,1.36,3.24,3.05,4.43,4.96.44-4.91,1.64-9.33,4.37-11.83,2.85-2.61,7.19-2.94,10.86-3.22,2.67-.2,5.37-.18,8.04.11,9.92,1.05,19.05,5.7,22.02,15.9.45,1.55.63,3.11.6,4.69h0Z"/>
        <path class="cls-14" d="M494.54,51.47c.46-4.24,1.02-12.38,5.06-14.83,7.11-4.24,5.26,12.93,4.97,15.62-3.24-.8-6.69-1.15-10.04-.8h0ZM366.03,47.68c-.23-2.22-.85-11.4.94-12.69,5-3.54,13.6,2.13,8.37,7.91-2.36,2.61-6.31,3.21-9.31,4.78h0ZM368.36,64.32c4.36,4.29,9.52,7.72,15.11,10.21,1.16.5,4.2,2,5.34,1.81,1.25-.2,4.38-5.1,6.01-8.84.05,1.95.16,3.77.29,5.4,0,.23.18.68.26.91.92,2.35,13.35,3.75,15.28,2.31,1.2-.82.14-9.12.08-10.9,2.91.13,5.83.72,8.75.84-1.78,8.17-5.86,9.78,4.5,10.81,1.76.1,5.99.94,7.24-.56.88-1.11,1.52-2.59,1.85-3.98,3.48-14.39,6.05-52.51-18.13-48.83-16.06,2.49-19.91,23.41-20.15,39.32-.89-.47-2.14-.95-2.67-1.25-3.58-1.79-6.72-4.22-10.15-6.24,5.84-3.58,9.48-8.84,10.54-15.63.31-2.08.31-4.16-.29-6.21-3.47-11.92-16.49-14.99-27.39-14.15-2.9.18-7.02.48-9.31,2.55-1.68,1.54-2.65,4.21-3.18,7.38-1.22,7.31-.09,17.26.08,22.18.23,6.59.61,13.25,1.6,19.81.4,2.67.91,8.48,4.36,8.82,1.38.11,7.45-1.11,8.96-1.54,1.21-.35,3.49-.82,3.82-2.28.07-.16-2.51-10.57-2.79-11.94h0ZM411.19,54.39c.47-4.24,1.02-12.38,5.07-14.83,7.11-4.24,5.26,12.93,4.97,15.62-3.23-.8-6.68-1.15-10.04-.79h0ZM449.38,44.77c-.23-2.22-.85-11.4.93-12.69,5-3.54,13.6,2.13,8.38,7.91-2.36,2.61-6.31,3.21-9.31,4.78h0ZM451.71,61.4c4.35,4.29,9.51,7.72,15.1,10.21,1.17.5,4.2,2,5.34,1.81,1.26-.2,4.38-5.1,6.01-8.84.05,1.95.16,3.77.29,5.4,0,.23.18.68.26.91.92,2.35,13.35,3.75,15.29,2.31,1.2-.82.14-9.12.08-10.9,2.91.13,5.83.72,8.74.84-1.78,8.17-5.85,9.78,4.5,10.81,1.76.1,6,.94,7.24-.55.88-1.11,1.52-2.59,1.85-3.98,3.48-14.39,6.05-52.51-18.13-48.83-16.06,2.49-19.91,23.41-20.15,39.32-.89-.47-2.14-.95-2.67-1.25-3.58-1.79-6.72-4.22-10.15-6.24,5.83-3.58,9.47-8.84,10.53-15.62.31-2.09.31-4.16-.29-6.21-3.47-11.92-16.49-14.99-27.39-14.15-2.9.18-7.01.47-9.31,2.55-5.55,5.1-3.35,22.51-3.1,29.55.23,6.59.62,13.25,1.61,19.81.4,2.67.91,8.48,4.36,8.82,1.38.11,7.45-1.11,8.96-1.54,1.21-.35,3.49-.82,3.82-2.28.07-.16-2.51-10.57-2.78-11.94h0Z"/>
        <path class="cls-11" d="M494.48,49.63c.46-4.24,1.02-12.38,5.06-14.83,7.11-4.24,5.26,12.93,4.97,15.62-3.24-.8-6.69-1.15-10.04-.8h0ZM365.96,45.84c-.23-2.22-.85-11.4.94-12.69,5-3.54,13.6,2.13,8.37,7.91-2.36,2.61-6.31,3.21-9.31,4.78h0ZM368.3,62.47c4.36,4.29,9.52,7.72,15.11,10.21,1.16.5,4.2,2,5.34,1.81,1.25-.2,4.38-5.1,6.01-8.84.05,1.95.16,3.77.29,5.4,0,.23.18.68.26.91.92,2.35,13.35,3.75,15.28,2.3,1.2-.82.14-9.12.08-10.9,2.91.13,5.83.72,8.75.84-1.78,8.17-5.85,9.78,4.5,10.81,1.76.1,5.99.94,7.24-.56.88-1.11,1.52-2.59,1.85-3.98,3.48-14.39,6.05-52.52-18.13-48.83-16.06,2.49-19.91,23.41-20.15,39.32-.89-.47-2.14-.95-2.67-1.25-3.58-1.79-6.72-4.22-10.15-6.24,5.84-3.58,9.48-8.84,10.54-15.63.31-2.08.31-4.16-.29-6.21-3.47-11.92-16.49-14.99-27.39-14.15-2.9.18-7.02.48-9.31,2.55-1.68,1.54-2.65,4.21-3.18,7.38-1.22,7.31-.09,17.26.08,22.18.23,6.59.61,13.25,1.6,19.81.4,2.67.91,8.48,4.36,8.82,1.38.11,7.45-1.1,8.96-1.54,1.21-.35,3.49-.82,3.82-2.28.07-.16-2.51-10.57-2.79-11.94h0ZM411.13,52.54c.47-4.24,1.02-12.38,5.07-14.83,7.11-4.24,5.26,12.93,4.97,15.62-3.23-.8-6.68-1.15-10.04-.79h0ZM449.31,42.92c-.23-2.22-.85-11.4.93-12.69,5-3.54,13.6,2.13,8.38,7.91-2.36,2.61-6.31,3.21-9.31,4.78h0ZM451.65,59.56c4.35,4.29,9.51,7.72,15.1,10.21,1.17.5,4.2,2,5.34,1.81,1.26-.2,4.38-5.1,6.01-8.84.05,1.95.16,3.77.29,5.4,0,.23.18.68.26.91.92,2.35,13.35,3.75,15.29,2.31,1.2-.82.14-9.12.08-10.9,2.91.13,5.83.72,8.74.84-1.78,8.17-5.85,9.78,4.5,10.81,1.76.1,6,.94,7.24-.55.88-1.11,1.51-2.59,1.85-3.98,3.48-14.39,6.05-52.51-18.13-48.83-16.06,2.49-19.91,23.41-20.15,39.32-.89-.47-2.14-.95-2.67-1.25-3.58-1.79-6.72-4.22-10.15-6.24,5.83-3.58,9.47-8.84,10.53-15.62.31-2.09.31-4.16-.29-6.21-3.47-11.92-16.49-14.99-27.39-14.15-2.9.18-7.01.48-9.31,2.55-5.55,5.11-3.35,22.51-3.1,29.55.23,6.59.62,13.25,1.61,19.81.4,2.67.91,8.48,4.36,8.82,1.38.11,7.45-1.11,8.96-1.54,1.21-.35,3.49-.82,3.82-2.28.07-.16-2.51-10.57-2.78-11.94h0Z"/>
        <g class="cls-29">
          <path class="cls-9" d="M343.96,33.48s21.14,20.03,70.85,5.62c49.72-14.4,109.51,19.91,126.7,14.02,17.19-5.88-2.5-.31-2.5-.31,0,0-28.93,40.94-30.66,42.01-1.73,1.07-178.89-6.4-178.94-7.92-.05-1.52,14.55-53.44,14.55-53.44h0Z"/>
          <path class="cls-1" d="M542.43,49.42s-21.78,19.32-71,3.29c-49.22-16.03-110.1,16.3-127.09,9.85-16.99-6.45,2.51-.23,2.51-.23,0,0,5.32,47.72,7.02,48.84,1.69,1.13,201.26-6.36,201.36-7.88.1-1.51-12.79-53.88-12.79-53.88h0Z"/>
          <path class="cls-2" d="M354.66,73.6s2.13,4.01,8.58,2.62c6.45-1.4,7.09-3.98,6.7-6.82-.39-2.84,3.33,7.1,3.33,7.1,0,0-9.57,3.15-10.02,3.17-.44.02-8.74-.2-8.74-.2l.15-5.86h0ZM502.48,62.44s-1.19,5.36.72,6.64c1.91,1.27,6.98,2.09,9.52,1.37,2.54-.72,3.94-4.27,3.94-4.27l-.28,6.43s-.16,1.22-.35,1.3c-.19.09-14.68-1.9-14.68-1.9,0,0-2.7-1.47-2.59-2.25.11-.78,3.71-7.33,3.71-7.33h0ZM478.14,64.04s.34,3.94,3.53,5.15c3.18,1.2,8.03,1.95,10.06.91,2.03-1.04,2.6-5.67,2.6-5.67l1.19,6.35s.11,1.23-.08,1.36c-.19.13-14.71.55-14.71.55,0,0-3.57-2.91-3.63-3.7-.06-.79,1.05-4.94,1.05-4.94h0ZM460.22,66.3s10.29,5.33,13.9,1.17c3.61-4.16,3.98-4.74,3.98-4.74l-1.97,9.21-7.69.11-8.09-5.07-.11-.68h0ZM438,70.68s1.85,4.21,8.58,2.62c6.73-1.6,7.09-3.98,6.7-6.82-.39-2.84,3.33,7.1,3.33,7.1,0,0-9.58,3.15-10.02,3.17-.44.01-8.74-.2-8.74-.2l.15-5.86h0ZM419.13,65.36s-1.19,5.36.72,6.64c1.91,1.28,6.98,2.09,9.52,1.38,2.54-.72,3.94-4.27,3.94-4.27l-.28,6.43s-.16,1.22-.35,1.3c-.19.08-14.68-1.9-14.68-1.9,0,0-2.7-1.47-2.59-2.25.11-.78,3.71-7.33,3.71-7.33h0ZM394.79,66.95s.32,4.14,3.5,5.34c3.18,1.2,7.03,1.83,9.73.95,2.7-.88,2.96-5.91,2.96-5.91l1.19,6.35s.11,1.23-.08,1.36c-.19.13-14.71.55-14.71.55,0,0-3.57-2.91-3.63-3.7-.06-.79,1.05-4.94,1.05-4.94h0ZM376.87,69.22s10.29,5.33,13.9,1.17c3.61-4.16,3.98-4.74,3.98-4.74l-1.98,9.21-7.69.11-8.09-5.07-.11-.68h0Z"/>
          <path class="cls-4" d="M351.5,26.51s4.19-8.44,15.01-7.49c10.82.95,15.43,1.38,25.39,6.39,9.96,5.01,15.34-5.16,41.38-1.89,0,0,10.49-14.04,37.19-4.4l15.48,6.23s16.77-13.06,28.69-.37l-9.73-20.49-153.63,8.92.2,13.1h0Z"/>
          <path class="cls-4" d="M367.15,19.53c-.44-.02-.79.26-.78.62.01.36.38.67.82.69.44.02.79-.26.78-.62-.01-.36-.38-.67-.82-.69h0Z"/>
          <path class="cls-4" d="M415.32,22.66c-.51.06-.95.2-1.24.38-.43-.16-1.04-.22-1.69-.14-1.24.15-2.18.74-2.11,1.32.07.58,1.13.93,2.37.78.98-.12,1.78-.51,2.03-.96.25.03.53.03.82,0,.92-.1,1.63-.49,1.58-.87-.05-.38-.84-.61-1.76-.51h0Z"/>
          <path class="cls-4" d="M443.78,18.06c.3.09.72.02,1.12-.19.62-.34.95-.92.75-1.3-.18-.34-.72-.41-1.26-.2-.02-.14-.07-.27-.14-.38-.53-.83-2.23-.68-3.79.33-1.56,1.01-2.39,2.5-1.85,3.33.53.83,2.23.68,3.79-.33.58-.37,1.05-.81,1.4-1.26h0Z"/>
          <path class="cls-4" d="M459,15.69c.68.05,1.21.4,1.18.78-.03.38-.6.65-1.28.6-.36-.03-.68-.14-.89-.29-.06,0-.12,0-.19-.01-.67-.08-1.18-.46-1.14-.83.05-.38.63-.62,1.31-.54.33.04.61.15.82.29.06,0,.13,0,.19,0h0Z"/>
          <path class="cls-4" d="M501.8,18.91c-.73.03-1.3.37-1.29.77.01.4.61.7,1.34.68.05,0,.09,0,.13,0,.25.51,1.05.86,1.99.82,1.12-.04,2.01-.62,1.99-1.29-.02-.67-.95-1.18-2.07-1.15-.47.02-.91.13-1.24.3-.23-.1-.53-.15-.85-.14h0Z"/>
          <path class="cls-4" d="M491.59,21.48c-.49.2-.79.6-.67.9.12.3.61.38,1.1.19.49-.2.79-.6.67-.9-.12-.3-.61-.38-1.1-.19h0Z"/>
          <path class="cls-4" d="M361.75,18.13c-2.14.27-3.79,1.13-3.69,1.92.1.79,1.91,1.22,4.05.95,2.13-.27,3.79-1.13,3.69-1.92-.1-.79-1.91-1.21-4.05-.95h0Z"/>
          <path class="cls-2" d="M362.4,75.14c1.33-.21,2.48.08,2.57.67.09.58-.9,1.23-2.23,1.45-1.33.22-2.48-.08-2.57-.67-.09-.58.91-1.23,2.23-1.45h0Z"/>
          <path class="cls-2" d="M357.72,75.46c.6.26,1.01.63.92.85-.08.21-.64.18-1.23-.08-.6-.26-1.01-.63-.93-.84.09-.21.64-.18,1.23.08h0Z"/>
          <path class="cls-2" d="M365.34,75.18c.53-.12.99-.06,1.03.12.04.18-.35.43-.87.55-.53.12-.99.06-1.03-.12-.04-.19.35-.43.87-.55h0Z"/>
          <path class="cls-2" d="M407.97,72.49c.54-.06,1,.14,1.03.45.04.31-.37.61-.91.67-.24.03-.47,0-.65-.06-.2.32-.8.61-1.54.7-.93.11-1.73-.14-1.78-.57-.05-.42.67-.85,1.6-.96.57-.07,1.09,0,1.42.16.15-.19.45-.35.82-.39h0Z"/>
          <path class="cls-2" d="M423.77,72.29c.69.11,1.17.68,1.07,1.28-.1.6-.73.99-1.42.88-.61-.1-1.05-.56-1.08-1.08-.65.14-1.59-.01-2.53-.47-1.46-.71-2.35-1.88-2-2.61.35-.73,1.82-.75,3.28-.04,1.14.55,1.93,1.39,2.06,2.07.19-.06.4-.07.62-.04h0Z"/>
          <path class="cls-2" d="M442.54,72.52c1.18-.04,2.16.37,2.18.92.02.55-.92,1.03-2.11,1.07-1.18.04-2.16-.37-2.18-.92-.02-.55.92-1.03,2.11-1.07h0Z"/>
          <path class="cls-2" d="M445.17,71.8c.32-.01.58.19.59.44.01.26-.24.47-.56.48-.32.01-.58-.19-.59-.44,0-.26.24-.47.56-.48h0Z"/>
          <path class="cls-2" d="M449.08,71.73c.68-.2,1.32-.11,1.41.21.1.32-.38.75-1.07.95-.68.2-1.32.11-1.41-.21-.1-.32.38-.75,1.07-.95h0Z"/>
          <path class="cls-2" d="M467.57,68.01c.84.13,1.48.56,1.41.97-.06.41-.8.63-1.64.5-.84-.13-1.48-.56-1.41-.97.06-.41.79-.63,1.64-.5h0Z"/>
          <path class="cls-2" d="M471.89,69.12c1.07-.3,1.82-.82,1.68-1.16-.14-.34-1.11-.37-2.18-.07-1.07.3-1.82.82-1.68,1.16.14.34,1.11.37,2.18.07h0Z"/>
          <path class="cls-2" d="M485.55,68.9c1.43.16,2.53.83,2.45,1.5-.07.67-1.29,1.08-2.72.93-1.43-.16-2.53-.83-2.45-1.5.07-.67,1.29-1.08,2.72-.93h0Z"/>
          <path class="cls-2" d="M489.06,68.87c.42-.01.77.19.78.46,0,.27-.33.5-.75.52-.42.01-.77-.19-.78-.46,0-.27.33-.5.75-.52h0Z"/>
          <path class="cls-2" d="M508.66,69.5c.36-.04.7,0,.96.1.35-.41,1.05-.74,1.89-.83,1.24-.13,2.31.31,2.38,1,.07.68-.88,1.34-2.12,1.47-.91.1-1.72-.12-2.12-.5-.22.12-.51.22-.83.25-.76.08-1.41-.19-1.45-.6-.04-.41.53-.81,1.29-.89h0Z"/>
          <path class="cls-2" d="M386.64,71.46c.65-.02,1.21.1,1.37.28.04-.13.33-.3.7-.41.43-.12.8-.12.84.01.04.13-.28.34-.7.47-.35.1-.67.12-.79.05,0,.24-.62.45-1.39.48-.77.03-1.41-.14-1.42-.38,0-.24.61-.45,1.39-.48h0Z"/>
          <path class="cls-2" d="M382.91,71c.62.14,1.03.5.9.8-.13.3-.73.43-1.35.29-.62-.14-1.03-.5-.9-.8.13-.3.73-.43,1.35-.29h0Z"/>
          <path class="cls-2" d="M516.67,66.16l-1.55,3.82-1.02.83-7.05.15-3.84-.32-2.08-1.98,1.39-6.37-2.83,5.13.9,3.91s3.1,1.38,3.36,1.39c.26.01,9.01.52,9.19.51.18,0,3.8-1.68,3.8-1.68,0,0,.41-3.4.41-3.58,0-.18-.68-1.8-.68-1.8h0Z"/>
          <path class="cls-2" d="M494.28,63.85l.21,3.52-1.78,3.27-3.93.81-7.15-1.35-3.12-3.43-.39-2.89-.46,4.51,1.27,2.49s4.79,1.57,5.48,1.69c.69.11,7.26.3,7.52.31.26.01,3.52-.89,3.53-1.11.01-.22.28-3.79.27-4.14-.01-.36-1.46-3.66-1.46-3.66h0Z"/>
          <path class="cls-2" d="M478.1,62.73s-1.78,6.41-1.85,6.55c-.07.14-3.8,3.63-3.8,3.63l-8.45-2.63-3.69-3.92s3.94,2.2,7.26,2.62c3.32.42,5.8.19,5.8.19l1.57-1.41,3.15-5.03h0Z"/>
          <path class="cls-2" d="M453.29,66.48l.6,3.94s-.42,1.54-.56,1.62c-.14.08-11.25,2.57-11.25,2.57l-3.36-2.65-.7-1.21,1,4.61,5.52,1.02,9.71-3.21,1.82-2.71-2.78-3.98h0Z"/>
          <path class="cls-2" d="M433.31,69.1l-.05,4.73-2.18,2.57s-13.02-.12-13.02-.24c0-.12-1.87-3.34-1.87-3.34l2.14-7.69.75.45-1.02,5.35,2.04,1.93s5.39,1.45,5.83,1.44c.43-.01,4.12,0,4.33-.21.21-.2,2.58-3.47,2.58-3.47l.48-1.51h0Z"/>
          <path class="cls-2" d="M410.97,67.25l1.6,6.85-3.17,1.69h-11.55s-3.21-3.2-3.21-3.2l-3,.62-2.42,1.83-13.06-3.8.86-1.93,7.47,3.32,3.43.08,2.97-1.77,3.85-5.29-.36,1.29.41.07.44,3.6,2.55,2.26,3.44,1.05,4.23.23,4.41-.61s1.18-3.02,1.17-3.15c0-.13-.06-3.13-.06-3.13h0Z"/>
          <path class="cls-2" d="M369.96,69.47l.64,4.21-5.25,2.68s-6.69.93-6.93.84c-.24-.09-2.54-1.63-2.54-1.63l-1.2-1.88.54,3.31,2.55,3.15s6.54-2.52,6.68-2.33c.14.19,6.77-2.2,6.77-2.2l.27-4.03-1.53-2.12h0Z"/>
          <path class="cls-2" d="M399.07,71.32c.82.36,1.29,1.12,1.03,1.71-.25.59-1.12.77-1.95.41-.82-.36-1.29-1.12-1.03-1.71.25-.59,1.12-.77,1.95-.41h0Z"/>
        </g>
        <path class="cls-14" d="M383.72,51.7s.17-4.55-5.02-4.23c-.72.04-2.95.86-5.55.08,0,0,4.93,9.88,10.94,5.26.13-.06-3.62-2.9-7.29-3.37,0,0,3.41-.26,6.92,2.27h0Z"/>
        <path class="cls-5" d="M449.45,41.56s-1.41-4.33-6.17-2.23c-.66.29-2.47,1.83-5.17,2,0,0,8.03,7.56,12.08,1.14.1-.11-4.39-1.46-8.01-.64,0,0,3.11-1.42,7.27-.27h0Z"/>
        <path class="cls-5" d="M420.68,49.61c-.11-1.65-.38-4.1-.97-4.93-.21.07-.47.22-.59.29-2.01,1.2-3.01,5.19-3.56,8.8,1.66.03,3.32.18,4.95.44.11-1.54.18-3.08.17-4.61h0Z"/>
      </g>
      <g>
        <path class="cls-21" d="M131.43,366.11c-3,.35-3.34-2.13-7.85-1.6-4.41.52-6,4.5-5.34,9.83.63,5.15,3.82,8.48,8.28,7.95,2.06-.24,3.71-1.21,4.48-2.07.78-.86,1.94-1.77,3.29-1.92,2.12-.24,3.56.85,3.78,2.81.26,2.29-.7,4.14-2.82,5.58-2.16,1.46-4.87,2.35-8.18,2.74-9.61,1.15-15.2-4.23-16.41-13.76-.63-5,.07-9.15,2.07-12.45,2-3.3,5.52-5.28,10.43-5.86,2.19-.26,4.52-.15,7.05.38,2.53.53,4.38,2.16,4.65,4.49.23,2.05-1.07,3.6-3.44,3.87Z"/>
        <path class="cls-21" d="M160.01,372.11c-1.09,2.23-4.31,3.14-8.35,3.61-2.07.27-3.41.51-4.06.72-.75.27-1.09.75-1.01,1.46.25,2.34,2.85,3.46,5.4,3.19,2.26-.24,3.76-1.21,4.26-2.04.5-.82,1.38-1.73,2.58-1.86,1.69-.17,3.46,1,3.62,2.68.13,1.29-.38,2.5-1.53,3.63-1.19,1.13-2.51,1.99-3.95,2.57-1.49.59-2.91.93-4.2,1.06-7.66.81-12.4-3.05-13.26-10.73-1.02-9.06,2.46-14.05,10.42-14.89,2.72-.29,5.12.14,7.25,1.33,2.13,1.18,3.29,3.05,3.54,5.48.13,1.29-.09,2.56-.7,3.78ZM152.25,371.17c1.27-.47,1.87-1.3,1.74-2.5-.18-1.72-2.43-2.16-4.41-1.95-2.37.25-3.89,2.11-3.63,4.44.06.52.32.74.91.77.59.03.88.05,1.85-.05,1.55-.16,2.22-.24,3.54-.71Z"/>
        <path class="cls-21" d="M164.44,367.14c-.47-1.35-.77-2.38-.84-3.1-.22-2.25,1.27-3.6,3.6-3.82,2.72-.26,3.89,1.27,4.5,4.1.02.19.07.28.12.28.06-.07.12-.14.18-.21.79-2.05,1.06-2.75,2.38-3.84.69-.5,1.49-.81,2.46-.9,2.38-.22,4.07,1.17,4.28,3.52.16,1.81-.35,3.16-1.55,3.99-.55.43-1.54.77-2.98.99-1.44.23-2.47.71-3.08,1.49-.83.99-1.15,2.23-1.02,3.71.1,1.05.33,2.43.72,4.08.35,1.7.54,2.7.58,3.03.23,2.49-.83,4.08-3.18,4.3-2.92.28-4.5-1.01-4.79-3.93-.1-1-.16-2.59-.22-4.71-.06-2.12-.17-3.7-.26-4.7-.14-1.48-.43-2.9-.91-4.3Z"/>
        <path class="cls-21" d="M191.47,354.28c.23,2.73-.87,4.89-3.58,5.12-2.77.24-5.03-1.59-5.27-4.31-.25-2.87,1.09-4.43,4.06-4.69,2.69-.23,4.59,1.39,4.8,3.88ZM191.52,365.4c.02.24.08.96.13,2.16.05,1.2.06,1.87.07,2.02.08,1,.3,2.39.64,4.14.34,1.75.55,3.08.62,3.9.29,3.49-.44,5.14-3.7,5.42-2.93.25-3.86-1.01-4.13-4.07-.08-.91.09-4.01.02-4.82-.07-.76-.22-1.91-.49-3.43-.27-1.47-.47-2.61-.54-3.37-.29-3.3.78-5.08,3.2-5.29,2.57-.22,3.99.92,4.19,3.35Z"/>
        <path class="cls-21" d="M198.53,355.63c-.21-2.63,1.15-4.04,4.03-4.27,2-.15,3.05.68,3.18,2.5.06.81-.23,2.81-.17,3.58.03.43.39.6,1.02.55.63-.05,2.46-.43,3.19-.48,2.09-.15,3.49.9,3.63,2.86.17,2.35-1.37,4-3.84,4.18-.77.06-2.09.01-2.82.07-.63.05-1.01.17-1.09.37-.17.35-.14,1.94.08,4.81.03.34.12,1.58.2,2.01.03.43.16,1.48.39,1.9.4.74.73,1.34,1.79,1.26.72-.06,2.88-1.03,3.65-1.09,1.35-.1,2.31,1.13,2.42,2.61.22,3.06-2.53,5.04-6.99,5.38-5.57.43-7.53-3.02-8-8.76-.07-.86-.12-2.16-.22-3.93-.09-1.73-.14-3.02-.21-3.88-2.18.17-3.98-.98-4.16-3.13-.06-.72.04-1.3.25-1.71,1.22-2.36,4.17-1.59,4.1-2.55-.03-.43-.38-1.7-.43-2.28Z"/>
        <path class="cls-21" d="M238.32,363.73c.07,1.15-.12,4.53-.05,5.68.04.62.33,1.52.84,2.69.51,1.22.76,2.26.81,3.13.17,2.97-1.23,4.54-4.2,4.73-3.79.24-3.89-2.74-4.95-2.67-.67.04-1.16,3-5.63,3.3-3.65.25-6.48-2.25-7.66-5.34-.64-1.54-1-3.2-1.13-5.02-.64-8.85,3.48-14.26,12.05-14.82,5.79-.37,9.59,2.72,9.92,8.33ZM226.54,373.8c3.66-.24,5.31-3.23,4.95-9.03-.14-2.3-1.08-3.25-3.36-3.1-1.75.11-3.06.92-3.98,2.38-.92,1.51-1.29,3.17-1.17,4.99.22,3.31,1.4,4.91,3.57,4.77Z"/>
        <path class="cls-21" d="M254.39,375.72c-1.36-1.13-2.11-2.54-2.2-4.31-.11-2.06,1.37-3.44,3.45-3.54,1.16-.06,2.61.88,3.67,1.79,1.01.96,2.94,1.88,4.87,1.79,2.65-.12,4.88-1.08,4.78-3.44-.09-1.97-2.39-2.69-6.65-3.35-2.15-.33-3.87-.73-5.11-1.24-3.12-1.19-5.02-4.02-5.19-7.33-.17-3.31.82-5.81,3.03-7.56,2.21-1.7,5.01-2.65,8.43-2.81,1.71-.08,3.48.08,5.26.53,1.78.45,3.14,1.26,4.06,2.33.67.74.99,1.5,1.02,2.31.08,1.87-1.41,3.66-3.31,3.74-.54.02-1.67-.31-3.36-1.05-1.69-.74-3.22-1.06-4.63-.99-1.9.09-3.57.84-3.49,2.52.3,6.36,16.85-.48,17.37,12.69.18,4.46-2.63,7.79-6.23,9.24-1.85.75-3.85,1.18-6.01,1.28-3.6.17-7.05-.38-9.77-2.6Z"/>
        <path class="cls-21" d="M300.68,358.58c.01.53-.01,1.35-.03,2.5-.06,1.15-.09,1.97-.08,2.5.07,2.59.23,4.89.48,6.9.2,2.06.33,3.11.33,3.26.05,1.92-1.55,3.06-3.53,3.12-3.13.09-3.26-2.64-4.36-2.61-.29,0-2.37,2.81-5.73,2.92-2.79.1-4.99-.88-6.56-2.93-1.57-2.06-2.44-4.52-2.56-7.44-.37-9.26,4.06-14.53,12.7-14.81,6.09-.19,9.23,2.03,9.35,6.59ZM289.52,370.73c1.69-.06,2.87-.91,3.64-2.57.72-1.65,1.06-3.39,1-5.27-.05-1.77-.12-2.45-.54-3.49-.47-1.04-1.4-1.35-3.1-1.29-1.89.06-3.18.87-3.95,2.44-.77,1.56-1.14,3.4-1.07,5.47.1,2.69,1.38,4.8,4.03,4.71Z"/>
        <path class="cls-21" d="M312.05,351.68c-1,.93-2.11,1.39-3.33,1.42-2.39.06-4.29-2.01-4.35-4.46-.07-2.83,1.35-4.6,4.09-4.66,2.98-.07,4.97,1.53,5.03,4.45.03,1.25-.44,2.31-1.44,3.25ZM312.81,359.92c.02.81,0,2.11-.07,3.8-.11,1.68-.13,2.98-.11,3.8.02.77.37,3.83.39,4.7.06,2.88-1.5,4.35-3.95,4.41-2.64.06-3.4-1.31-3.47-4.14-.01-.58.01-1.49.03-2.69.02-1.2.04-2.11.03-2.69-.02-.72-.09-1.82-.23-3.31-.13-1.44-.21-2.54-.23-3.26-.08-3.12.6-5.01,3.47-5.08,2.92-.07,4.07,1.4,4.13,4.47Z"/>
        <path class="cls-21" d="M321.21,351.51c2.53-.04,3.82,1.19,3.86,3.69,1.14-2.18,3.65-3.41,6.33-3.44,5.7-.06,8.6,2.95,8.64,8.95,0,.91-.12,3.79-.11,4.66.02,2.93.57,5.56.58,6.86.02,2.5-1.37,3.94-3.87,3.97-2.31.02-3.72-1.31-3.74-3.66,0-.86.03-2.11.11-3.79.08-1.68.11-2.93.1-3.79-.02-1.68-.17-2.69-.62-4.07-.45-1.34-1.58-2.1-3.18-2.08-2.67.03-4.35,1.74-4.3,4.47.02,1.63.1,3.36.27,5.23.12,1.87.19,3.21.2,4.03.03,2.35-1.39,3.91-3.84,3.95-2.07.03-3.83-1.57-3.87-3.53,0-.53.07-1.68.18-3.41.11-1.68.18-3.41.15-5.14-.03-1.78-.16-3.59-.39-5.42-.23-1.82-.35-2.92-.35-3.26-.05-2.74,1.24-4.15,3.87-4.2Z"/>
        <path class="cls-21" d="M360.77,352.98c.92.82,1.4,1.93,1.4,3.22,0,1.68-1.57,2.58-3.31,2.58-.49,0-1.31-.34-2.43-1.01-1.17-.63-2.48-.96-3.94-.96-1.12,0-2.04.67-2.04,1.78,0,2.35,4.66,2.2,8.34,3.13,2.52.63,4.54,2.75,4.52,6.35-.02,2.83-1.04,4.89-3.02,6.23-2.03,1.34-4.53,2-7.56,2-2.21,0-4.28-.52-6.21-1.57-1.93-1-2.9-2.43-2.91-4.26-.01-2.35.95-3.51,2.88-3.52,1.21,0,2.27.91,2.9,1.72.63.82,2.18,1.72,4.3,1.72,1.59,0,3.19-.81,3.19-2.2,0-1.39-2.17-2.11-3.96-2.26-5.27-.57-8.91-2.95-8.93-7.23-.01-2.54.9-4.42,2.8-5.72,1.89-1.3,4.14-1.93,6.82-1.93,2.88,0,5.22.29,7.16,1.93Z"/>
        <path class="cls-21" d="M384.67,365.47c.24,2.93.35,5.24.32,6.87-.04,2.3-1.6,3.81-3.91,3.78-1.88-.03-3.02-.95-3.53-2.54-.51-1.59-.59-2.84-.57-4.76.01-1.1.08-2.74.25-4.89.17-2.16.24-3.79.25-4.84.01-.91-.02-2.26-.05-4.03-.07-1.78-.11-3.07-.1-3.94.05-4.27,1.21-6.95,5.17-6.89,2.89.04,4.42,1.85,6.36,5.53.61,1.06,1.51,2.86,2.72,5.33,1.17,2.52,2,4.27,2.52,5.19,1.77,3.68,2.83,5.78,3.26,6.22.05-.05.1-.14.11-.38,0-.43-.13-2.84-.42-7.12-.29-4.28-.41-7.55-.36-9.8.07-3.12.84-4.93,3.78-4.86,2.89.07,4.26,1.84,4.17,5.24-.02.82-.1,2.06-.29,3.74-.19,1.68-.32,2.92-.34,3.74-.03,1.2-.03,3.07,0,5.71.03,2.64.02,4.76-.02,6.43-.06,2.21-.26,4.27-1.41,5.77-.74.85-2.01,1.53-3.79,1.49-3.22-.07-5.14-2.52-7.23-6.78-2.08-4.51-4.19-8.58-6.27-12.17-.28-.58-.52-.87-.67-.88-.19,0-.3.67-.32,1.96-.03,1.63.08,3.94.37,6.87Z"/>
        <path class="cls-21" d="M416.02,359.99c-.3,1.67-.45,3.25-.49,4.74-.12,3.74,1.17,5.66,3.82,5.75,1.79.06,3.08-1,3.72-2.61.64-1.61.83-2.95.89-4.53.03-.72.01-1.73-.08-3.12-.1-1.35-.11-2.36-.08-3.08.1-2.88,1.13-4.33,3.91-4.23,2.58.1,3.79,1.69,3.66,4.71-.04.91-.19,2.2-.45,3.97-.31,1.77-.46,3.1-.5,4.02-.06,1.58.01,3.36.27,5.34.26,1.98.35,3.19.34,3.62-.09,2.11-1.82,3.19-4.07,3.11-2.79-.11-3.74-3.02-3.98-3.03-.48-.02-2.36,2.75-6.55,2.61-5.33-.17-7.93-3.7-7.73-10.61.02-.62.25-3.59.27-4.17.02-.62,0-1.59-.11-2.89-.11-1.3-.13-2.31-.11-2.93.08-2.83,1.39-4.19,3.97-4.11,2.09.06,3.87,1.08,3.79,3.53-.03.96-.17,2.25-.47,3.92Z"/>
        <path class="cls-21" d="M451.84,355.28c.93.82,1.37,1.8,1.31,2.95-.1,1.92-1.43,3.29-3.23,3.2-.63-.03-1.63-.42-3-1.2-1.37-.79-2.52-1.18-3.49-1.22-1.6-.08-2.41.47-2.46,1.62-.05,1.2,1.75,2.09,5.41,2.75,5.11.87,7.55,3.26,7.35,7.15-.32,5.99-4.68,8.35-11.16,7.91-3.51-.17-9.07-1.89-8.9-6.06.1-2.3,1.16-3.41,3.14-3.33.97.04,1.94.9,2.73,1.75.74.85,2.34,1.74,4.22,1.83,2.12.1,3.22-.57,3.29-1.96.05-1.01-1.08-1.73-2.08-2.02-1.01-.24-3.02-.57-3.41-.64-4.26-1.01-7.11-3.53-6.94-7.7.11-2.59,1.16-4.47,3.11-5.63,1.95-1.17,4.32-1.68,7.14-1.55,2.68.13,5.05.58,6.97,2.17Z"/>
        <path class="cls-21" d="M478.01,364.34c-.04.67-.16,1.67-.34,3.06-.24,1.38-.35,2.38-.39,3.01-.1,1.49.11,2.84.66,3.99.55,1.19.79,1.98.76,2.41-.13,1.96-2.01,3.48-3.98,3.35-2.88-.18-3.51-3.25-3.99-3.28-.19,0-2.53,2.68-6.56,2.45-3.08-.18-5.32-1.41-6.79-3.65-1.47-2.24-2.1-4.92-1.94-8.08.42-8.1,4.93-13.06,12.68-12.61,7.06.42,10.32,2.9,9.9,9.37ZM469.63,371.12c1-1.34,1.53-2.84,1.63-4.52.2-3.31-.36-5.22-3.32-5.39-3.25-.19-5.29,2.24-5.47,5.5-.23,4.03.86,6.11,3.23,6.24,1.59.09,2.93-.5,3.93-1.83Z"/>
        <path class="cls-21" d="M486.77,355.83c2.53.17,3.71,1.51,3.53,4,1.32-2.07,3.93-3.09,6.61-2.89,5.69.42,8.32,3.67,7.85,9.65-.07.91-.44,3.77-.51,4.63-.23,2.92.09,5.59,0,6.89-.2,2.49-1.7,3.81-4.2,3.62-2.3-.18-3.6-1.62-3.42-3.97.07-.86.21-2.1.43-3.77.22-1.67.36-2.91.43-3.77.13-1.67.06-2.69-.28-4.11-.34-1.37-1.39-2.22-2.99-2.34-2.66-.19-4.48,1.36-4.67,4.09-.11,1.63-.19,3.36-.18,5.23-.04,1.87-.08,3.22-.14,4.03-.17,2.35-1.72,3.78-4.16,3.61-2.06-.14-3.68-1.89-3.55-3.85.03-.53.21-1.67.47-3.38.26-1.66.47-3.38.58-5.11.12-1.77.15-3.6.07-5.43-.07-1.83-.1-2.94-.07-3.28.18-2.73,1.59-4.03,4.22-3.85Z"/>
        <path class="cls-21" d="M519.92,355.55c-.12,1.39-.4,2.9-.43,3.24-.05.57.36.9,1.19.97.73.06,2.59.03,3.37.1,2.14.19,3.04,1.04,2.84,3.29-.21,2.3-1.95,3.82-4.23,3.62-.73-.06-2.5-.36-3.28-.43-1.11-.09-1.36,1.14-1.56,3.48-.21,2.49-.28,3.3-.16,4.71.07,1.4.61,1.93,1.53,2.01.34.03,2.9-.42,3.29-.39,1.73.15,2.75,1.26,2.6,2.98-.14,1.58-.97,2.71-2.48,3.39-1.52.73-3.18.97-4.96.82-5.03-.43-7.32-3.79-6.8-10.16.08-.96.23-2.24.46-3.82.18-1.57.3-2.48.33-2.82.19-2.3-4.04-.67-3.73-4.49.17-2.15,1.18-3.13,3.07-2.98,1.02.08,1.57-.06,1.61-.49.03-.38.03-1.54.07-2.06.23-2.87,1.05-4.44,4.03-4.19,1.8.15,3.41,1.49,3.26,3.22Z"/>
        <path class="cls-21" d="M551.06,367.98c-.05.53-.19,1.33-.35,2.47-.21,1.14-.35,1.94-.4,2.47-.26,2.58-.4,4.88-.42,6.91-.07,2.07-.08,3.13-.09,3.27-.2,1.91-1.94,2.84-3.9,2.64-3.11-.31-2.89-3.04-4-3.15-.29-.03-2.71,2.48-6.07,2.16-2.78-.27-4.84-1.52-6.14-3.76-1.3-2.24-1.84-4.8-1.58-7.71.83-9.23,5.91-13.89,14.51-13.05,6.07.6,8.9,3.21,8.43,7.74ZM538.41,378.59c1.68.16,2.96-.53,3.94-2.07.93-1.55,1.49-3.23,1.67-5.09.18-1.77.19-2.44-.09-3.53-.33-1.09-1.22-1.52-2.91-1.68-1.89-.18-3.27.46-4.24,1.91-.97,1.45-1.57,3.23-1.77,5.28-.25,2.68.75,4.94,3.39,5.19Z"/>
        <path class="cls-21" d="M555.26,368.47c-.19-1.42-.28-2.49-.2-3.21.23-2.24,1.96-3.27,4.29-3.02,2.72.29,3.56,2.02,3.59,4.92-.02.19.02.29.07.3.07-.06.14-.11.21-.17,1.18-1.85,1.59-2.48,3.11-3.28.77-.35,1.63-.5,2.6-.39,2.38.26,3.76,1.97,3.49,4.31-.21,1.81-.98,3.03-2.32,3.6-.62.31-1.66.44-3.12.38-1.46-.07-2.56.2-3.32.84-1.02.81-1.58,1.95-1.74,3.43-.11,1.05-.17,2.45-.11,4.14,0,1.74,0,2.75-.04,3.09-.27,2.48-1.63,3.83-3.98,3.58-2.92-.31-4.21-1.89-3.91-4.81.11-1,.37-2.57.73-4.65.37-2.09.58-3.66.68-4.66.16-1.48.16-2.93-.03-4.4Z"/>
        <path class="cls-21" d="M594.4,375.39c-.08.67-.26,1.66-.53,3.03-.32,1.36-.49,2.36-.57,2.98-.19,1.48-.06,2.85.42,4.02.48,1.22.67,2.02.62,2.45-.25,1.95-2.22,3.35-4.18,3.1-2.87-.36-3.32-3.46-3.8-3.52-.19-.02-2.69,2.52-6.71,2.05-3.06-.36-5.23-1.72-6.57-4.05-1.33-2.33-1.81-5.04-1.45-8.19.91-8.06,5.72-12.74,13.43-11.82,7.03.85,10.14,3.52,9.33,9.95ZM585.61,381.66c1.08-1.27,1.7-2.74,1.9-4.41.4-3.29-.05-5.23-2.99-5.59-3.24-.39-5.42,1.92-5.8,5.16-.47,4,.5,6.15,2.85,6.43,1.59.19,2.96-.32,4.04-1.59Z"/>
      </g>
    </g>
  </g>
</svg>