<svg width="154" height="34" viewBox="0 0 154 34" fill="none" xmlns="http://www.w3.org/2000/svg">
<g clip-path="url(#clip0_51_104)">
<path d="M31.3856 33.9997H1.65746C0.742541 33.9997 0 33.2504 0 32.3273V1.67201C0 0.991919 0.40884 0.380953 1.03204 0.124526C1.65525 -0.131901 2.37127 0.0174959 2.8442 0.503592L32.5724 31.1567C33.0387 31.6383 33.1735 32.3541 32.9149 32.9762C32.6564 33.5961 32.053 33.9997 31.3856 33.9997ZM3.31492 30.655H27.4431L3.31492 5.77484V30.655Z" fill="#231F20"/>
<path d="M70.9083 33.6699H40.5282C39.8541 33.6699 39.2486 33.2574 38.9923 32.6286C38.7381 31.9998 38.8862 31.2773 39.3679 30.8001L53.3481 16.9977L39.3679 3.19519C38.8862 2.72025 38.7381 1.99779 38.9923 1.36676C39.2464 0.737953 39.8541 0.325439 40.5282 0.325439H70.9083C71.8232 0.325439 72.5657 1.07465 72.5657 1.99779V31.9931C72.5657 32.9162 71.8232 33.6654 70.9083 33.6654V33.6699ZM44.5901 30.3252H69.2486V3.6746H44.5901L56.8751 15.8025C57.1934 16.1169 57.3746 16.5472 57.3746 16.9977C57.3746 17.4481 57.1956 17.8784 56.8751 18.1928L44.5901 30.3207V30.3252Z" fill="#231F20"/>
<path d="M104.431 21.5132C110.031 21.2947 114.522 16.6299 114.522 10.9261C114.522 5.22226 109.81 0.330078 104.018 0.330078H83.2022C83.2022 0.330078 83.1956 0.330078 83.1934 0.330078C83.1447 0.330078 83.0939 0.332308 83.0453 0.336768C83.0342 0.336768 83.021 0.338997 83.0099 0.341227C82.9746 0.345687 82.9392 0.350146 82.9017 0.356836C82.884 0.359066 82.8663 0.363525 82.8486 0.367985C82.8177 0.374674 82.7867 0.383593 82.758 0.392513C82.7403 0.396972 82.7249 0.401432 82.7072 0.408121C82.6674 0.4215 82.6276 0.434879 82.5878 0.452717C82.5878 0.452717 82.5856 0.452717 82.5834 0.452717C82.5635 0.461636 82.5458 0.470556 82.5282 0.477245C82.5039 0.488394 82.4773 0.501773 82.453 0.512922C82.4354 0.521841 82.4177 0.53299 82.4 0.541909C82.3735 0.557518 82.347 0.573126 82.3226 0.588735C82.3094 0.597654 82.2961 0.606573 82.2807 0.615493C82.2431 0.64225 82.2055 0.669008 82.1702 0.700225C82.1657 0.702455 82.1635 0.706914 82.1591 0.709144C82.126 0.735902 82.095 0.764889 82.0641 0.796106C82.053 0.807255 82.0442 0.816175 82.0331 0.827324C82.0088 0.851851 81.9867 0.876379 81.9646 0.903137C81.9558 0.914286 81.9447 0.925435 81.9359 0.938814C81.9116 0.970031 81.8873 1.00348 81.863 1.03692C81.8586 1.04361 81.8519 1.05253 81.8475 1.05922C81.8232 1.0949 81.8011 1.13281 81.7812 1.17071C81.7724 1.18632 81.7635 1.20416 81.7547 1.21977C81.7414 1.24653 81.7282 1.27105 81.7171 1.29781C81.7083 1.31565 81.7017 1.33349 81.6928 1.35356C81.6796 1.38477 81.6685 1.41599 81.6575 1.44944C81.6508 1.46505 81.6464 1.48289 81.642 1.50072C81.6309 1.54086 81.6199 1.581 81.611 1.62336C81.6066 1.6412 81.6044 1.65681 81.6022 1.67465C81.5956 1.70809 81.5912 1.74154 81.5867 1.77499C81.5867 1.7906 81.5823 1.80621 81.5823 1.82181C81.5779 1.87087 81.5757 1.91993 81.5757 1.97121V32.0312C81.5757 32.9365 82.3028 33.6723 83.2022 33.6723H112.354C113.008 33.6723 113.598 33.2754 113.852 32.6689C114.106 32.0601 113.973 31.3578 113.516 30.885L104.429 21.5154L104.431 21.5132ZM84.8287 3.61012H104.018C108.015 3.61012 111.268 6.89238 111.268 10.9261C111.268 14.9598 108.015 18.2421 104.018 18.2421H84.8287V3.61012ZM84.8287 30.39V21.5221H99.8895L108.491 30.39H84.8309H84.8287Z" fill="#231F20"/>
<path d="M152.374 0.330111H130.849C125.059 0.330111 120.347 5.08405 120.347 10.9261C120.347 16.7682 125.059 21.5221 130.849 21.5221H141.532V32.0312C141.532 32.9365 142.259 33.6723 143.158 33.6723H152.374C153.271 33.6723 154 32.9387 154 32.0312V1.96901C154 1.06372 153.273 0.327881 152.374 0.327881V0.330111ZM141.532 18.2399H130.849C126.851 18.2399 123.598 14.9576 123.598 10.9239C123.598 6.89018 126.851 3.60792 130.849 3.60792H150.747V18.2376H141.532V18.2399ZM144.782 30.3901V21.5221H150.747V30.3901H144.782Z" fill="#231F20"/>
</g>
<defs>
<clipPath id="clip0_51_104">
<rect width="154" height="34" fill="white"/>
</clipPath>
</defs>
</svg>
