<?xml version="1.0" encoding="UTF-8"?>
<svg id="Layer_1" data-name="Layer 1" xmlns="http://www.w3.org/2000/svg" xmlns:xlink="http://www.w3.org/1999/xlink" viewBox="0 0 1920 1080">
  <defs>
    <style>
      .cls-1 {
        fill: #f8f6ea;
      }

      .cls-2 {
        fill: #2f1724;
      }

      .cls-3 {
        fill: url(#linear-gradient-2);
      }

      .cls-4 {
        fill: #36eb24;
      }

      .cls-5 {
        fill: #f29e81;
      }

      .cls-6 {
        fill: #2cbcdd;
      }

      .cls-7 {
        fill: #fff;
      }

      .cls-8 {
        fill: #f67a7a;
      }

      .cls-9 {
        fill: #851e37;
      }

      .cls-10 {
        fill: none;
      }

      .cls-11 {
        fill: url(#linear-gradient-4);
      }

      .cls-12 {
        fill: url(#linear-gradient-3);
      }

      .cls-12, .cls-13 {
        fill-rule: evenodd;
      }

      .cls-14 {
        fill: #ffd3b7;
      }

      .cls-15 {
        fill: #00cfff;
        opacity: .2;
      }

      .cls-16 {
        fill: #f4aa82;
      }

      .cls-17, .cls-18 {
        fill: #ffe000;
      }

      .cls-19 {
        clip-path: url(#clippath-1);
      }

      .cls-20 {
        fill: url(#linear-gradient-5);
      }

      .cls-21 {
        fill: #a05300;
      }

      .cls-22 {
        fill: #f9b498;
      }

      .cls-23 {
        fill: #f4f0eb;
      }

      .cls-24 {
        fill: #ddbd03;
      }

      .cls-25 {
        fill: #a3e523;
      }

      .cls-26 {
        fill: #ec504c;
      }

      .cls-27 {
        opacity: .1;
      }

      .cls-28 {
        fill: url(#linear-gradient);
      }

      .cls-29 {
        clip-path: url(#clippath);
      }

      .cls-30 {
        fill: #2d2024;
      }

      .cls-31 {
        fill: #fffff6;
      }

      .cls-13 {
        fill: #f3928b;
      }

      .cls-32 {
        fill: #f48500;
      }

      .cls-33 {
        fill: #fffdf8;
      }

      .cls-18 {
        font-family: LovelyFace, 'Lovely Face';
        font-size: 29.79px;
      }
    </style>
    <linearGradient id="linear-gradient" x1="960" y1="1078.64" x2="960" y2="0" gradientUnits="userSpaceOnUse">
      <stop offset="0" stop-color="#fff"/>
      <stop offset="1" stop-color="#00f3ff"/>
    </linearGradient>
    <clipPath id="clippath">
      <path class="cls-4" d="M1078.62,1085.31c-365.12,4.93-730.25,9.87-1095.37,14.8.86-91.89,1.72-183.78,2.58-275.68,141.13-16.24,369.42-24.26,634.24,50.49,200.41,56.57,354.48,141.55,458.55,210.38Z"/>
    </clipPath>
    <linearGradient id="linear-gradient-2" x1="-1555.86" y1="25.8" x2="-1455.17" y2="25.8" gradientTransform="translate(-678.93 -342.25) rotate(-137.87) scale(1 -1)" gradientUnits="userSpaceOnUse">
      <stop offset="0" stop-color="#ffcab2"/>
      <stop offset=".46" stop-color="#fcc2a8"/>
      <stop offset="1" stop-color="#f9b498"/>
    </linearGradient>
    <linearGradient id="linear-gradient-3" x1="-1627.61" y1="1547.79" x2="-1627.61" y2="1607.73" gradientTransform="translate(-1305.68 -1183.28) rotate(-174.94) scale(1 -1)" xlink:href="#linear-gradient-2"/>
    <linearGradient id="linear-gradient-4" x1="-1859.99" y1="197.41" x2="-1859.99" y2="429.07" gradientTransform="translate(-1395.09 -271.99) rotate(-164.26) scale(1 -1)" xlink:href="#linear-gradient-2"/>
    <clipPath id="clippath-1">
      <path class="cls-10" d="M349.69,602.9l-50.43-12.16c-8.14,11.57-6.91,26.97,2.28,36.19,8.79,8.82,22.42,9.54,32.55,4.33,10.32-5.31,16.5-16.51,15.6-28.37Z"/>
    </clipPath>
    <linearGradient id="linear-gradient-5" x1="59.45" y1="587.03" x2="187.37" y2="587.03" gradientTransform="translate(55.56 -19.54) rotate(4.94)" xlink:href="#linear-gradient-2"/>
  </defs>
  <rect class="cls-28" width="1920" height="1078.64"/>
  <path class="cls-7" d="M2314.68,1165.76c43.47-83.64,32.88-183.93-18.95-272.95,10.03-8.84,19.24-18.52,27.53-29.02,0,0,12.38-15.72,21.95-33.98,9.51-18.13,57.81-446.51-221.93-559.08-10.39-4.18-179.2-69.04-321.7,24.51-47.6,31.25-76.86,70.06-93.45,96.51-62-35.44-135.52-32.79-185.36,6.13-44.38,34.65-53.96,85.54-56.17,100.09-4.72-3.09-92.84-58.57-187.82-13.21-88.43,42.22-104.98,134.67-106.31,142.92-14.92,1.19-59.3,6.67-99.06,41.86-47.3,41.86-54.66,96.23-56.08,109.35-21.56,1.19-120.9,8.95-177.7,85.79-76.71,103.76-29.11,270.28,72.49,339.46,48.58,33.08,100.61,37.84,129.14,38.11,5.93,82.76,63.33,167.33,155.55,215.26,106.42,55.31,226.13,44.63,296.05-19.03,166.15,74.76,358.02,18,436.33-132.67,2.07-3.98,4.01-7.99,5.88-12.02,159.1,41.84,316.48-6.53,379.6-128Z"/>
  <path class="cls-15" d="M2486.58,1625.7c51.5-78.95,50.84-179.8,8.03-273.48,10.85-7.81,20.97-16.53,30.25-26.17,0,0,13.86-14.43,25.2-31.66,11.25-17.1,101.51-438.64-165.77-578.22-9.93-5.19-171.53-86.35-322.55-7.3-50.44,26.41-83.39,62.15-102.5,86.84-58.2-41.37-131.63-45.98-185.06-12.16-47.57,30.11-62.12,79.81-65.76,94.07-4.4-3.54-86.62-67.43-185.61-31.65-92.16,33.31-117.73,123.68-119.87,131.75-14.96-.29-59.67.79-102.71,31.9-51.19,37-63.88,90.38-66.58,103.3-21.57-.94-121.19-3-185.29,67.87-86.55,95.7-55.6,266.1,38.7,344.95,45.09,37.7,96.4,47.56,124.76,50.64-2.25,82.94,46.54,172.76,133.59,229.53,100.45,65.52,220.64,66.69,296.48,10.23,157.97,90.77,354.51,53.18,447.27-89.05,2.45-3.76,4.78-7.56,7.04-11.39,154.2,57.31,315.58,24.67,390.37-89.99Z"/>
  <path class="cls-15" d="M2301.02,1369.72c46.06-82.24,38.61-182.81-10.41-273.4,10.3-8.52,19.81-17.91,28.42-28.15,0,0,12.86-15.33,23.01-33.28,10.07-17.82,71.73-444.48-204.36-565.74-10.26-4.5-176.96-74.6-322.31,14.45-48.55,29.75-79.02,67.63-96.42,93.54-60.86-37.36-134.43-37.01-185.46.34-45.44,33.25-56.6,83.82-59.27,98.28-4.62-3.24-90.96-61.44-187.32-19.07-89.7,39.44-109.13,131.33-110.72,139.53-14.95.72-59.48,4.81-100.32,38.74-48.58,40.37-57.64,94.48-59.47,107.55-21.58.52-121.12,5.17-180.29,80.2-79.91,101.31-37.54,269.24,61.85,341.56,47.53,34.58,99.38,40.96,127.89,42.12,3.34,82.9,58.08,169.23,148.75,220.01,104.64,58.6,224.63,51.67,296.5-9.77,163.73,79.92,357.28,29.18,440.26-118.98,2.19-3.91,4.26-7.86,6.25-11.83,157.72,46.79,316.53,3.36,383.42-116.08Z"/>
  <g>
    <g>
      <path class="cls-4" d="M1078.62,1085.31c-365.12,4.93-730.25,9.87-1095.37,14.8.86-91.89,1.72-183.78,2.58-275.68,141.13-16.24,369.42-24.26,634.24,50.49,200.41,56.57,354.48,141.55,458.55,210.38Z"/>
      <g class="cls-29">
        <path class="cls-25" d="M912.69,828.13c-43.28-13.45-85.64-21.44-124.5-24.33-12.17-52.89-63.3-103.23-134.25-125.28-87.58-27.22-174.69-1.83-204.31,56.72-57.82-23.71-134.86-40.3-220.04-44.71-183.9-9.53-336.01,41.29-339.75,113.5-3.74,72.21,142.31,138.47,326.21,148,126.9,6.57,238.66-15.59,296.98-53.69,18.43,12.55,39.72,22.94,63.19,30.23,13.7,4.26,27.38,7.22,40.84,8.98,33.05,53.63,114.5,108.49,217.91,140.63,149.1,46.35,287.37,27.95,308.84-41.1,21.47-69.05-82-162.6-231.1-208.95Z"/>
      </g>
    </g>
    <path class="cls-25" d="M45.41,814.32c-.51-1.55-7.03-2.2-11.04,1.14-.71.59-1.31,1.28-1.81,2.02.2-.49.4-.99.64-1.52,3.26-7.22,7.09-9.78,6.4-10.61-1.05-1.28-12,2.42-13.87,10.39-.08.35-.14.71-.19,1.07-3.94-2.24-9.15-1.64-9.61-.27-.26.77,2.32,2.71,7.5,6.57,5.66,4.22,6.3,4.26,6.66,4.02.53-.35.68-1.51.43-2.95.04-.18.09-.36.13-.55.06.55.23.96.5,1.14.35.24,1,.2,6.69-3.96,5.21-3.81,7.81-5.73,7.56-6.5Z"/>
    <path class="cls-25" d="M686.88,890.27c.92-1.34,7.37-.13,10.27,4.2.51.76.89,1.6,1.17,2.45-.05-.53-.11-1.07-.19-1.63-1.09-7.84-4.05-11.38-3.16-11.99,1.37-.93,10.83,5.69,10.39,13.87-.02.36-.06.72-.12,1.08,4.42-1.04,9.24,1,9.3,2.45.03.81-2.99,1.95-9.04,4.2-6.62,2.45-7.25,2.31-7.52,1.99-.41-.49-.23-1.64.41-2.96,0-.18.02-.37.03-.56-.21.51-.49.85-.8.95-.41.13-1.01-.09-5.31-5.68-3.93-5.12-5.89-7.69-5.43-8.36Z"/>
    <path class="cls-25" d="M445.43,829.96c-.23-1.61-6.55-3.37-11.07-.77-.8.46-1.51,1.04-2.13,1.68.28-.45.57-.91.89-1.38,4.45-6.55,8.66-8.42,8.13-9.36-.82-1.44-12.23.32-15.45,7.85-.14.33-.26.67-.37,1.02-3.5-2.89-8.73-3.18-9.42-1.91-.39.71,1.82,3.07,6.26,7.76,4.85,5.13,5.48,5.28,5.87,5.11.59-.25.93-1.37.93-2.83.07-.17.15-.34.23-.52-.03.55.06.98.3,1.21.31.29.95.37,7.28-2.75,5.79-2.86,8.68-4.3,8.57-5.1Z"/>
    <path class="cls-25" d="M246.49,816.81c3.57-2.35,5.95-4.75,5.48-5.8-.49-1.09-4.12-.85-8.79.6-1.07-.51-8.31-3.9-9.09-2.68-.74,1.16,4.76,5.91,5.76,6.76,2.22.37,4.44.74,6.65,1.11Z"/>
    <path class="cls-27" d="M527.65,905.3c.37-12.25-42.22-23.48-95.13-25.09-15.73-.48-30.6-.05-43.74,1.11-32.42-6.38-72.21-10.76-115.3-12.07-109.95-3.34-199.71,14.58-200.48,40.04-.77,25.45,87.73,48.8,197.68,52.14,106.44,3.24,193.96-13.46,200.13-37.63,33.27-2.48,56.56-9.51,56.84-18.5Z"/>
    <path class="cls-4" d="M463.46,918.38c-3.83-1.09-8.36,3.07-10.12,9.27-.3,1.05-.49,2.08-.6,3.09-.47-.9-1.03-1.79-1.69-2.66-3.92-5.13-9.65-7.33-12.82-4.92-3.16,2.41-2.55,8.53,1.36,13.66,3.92,5.13,9.65,7.33,12.82,4.92.95-.72,1.55-1.79,1.83-3.05.73,1.07,1.68,1.84,2.82,2.17,3.83,1.09,8.36-3.07,10.12-9.27,1.76-6.21.09-12.12-3.74-13.21Z"/>
    <path class="cls-4" d="M530.85,910.39c-.23-1.61-6.55-3.37-11.07-.77-.8.46-1.51,1.04-2.13,1.68.28-.45.57-.91.89-1.38,4.45-6.55,8.66-8.42,8.13-9.36-.82-1.44-12.23.32-15.45,7.85-.14.33-.26.67-.37,1.02-3.5-2.89-8.73-3.18-9.42-1.91-.39.71,1.82,3.07,6.26,7.76,4.85,5.13,5.48,5.28,5.87,5.11.59-.25.93-1.37.93-2.83.07-.17.15-.34.23-.52-.03.55.06.98.3,1.21.31.29.95.37,7.28-2.75,5.79-2.86,8.68-4.3,8.57-5.1Z"/>
    <path class="cls-4" d="M146.73,925.84c-3.83-1.07-8.35,3.09-10.09,9.31-.29,1.05-.48,2.08-.59,3.09-.47-.9-1.03-1.79-1.7-2.65-3.93-5.12-9.68-7.3-12.83-4.88-3.16,2.42-2.52,8.54,1.41,13.66,3.93,5.12,9.68,7.3,12.83,4.88.95-.73,1.55-1.79,1.82-3.06.73,1.07,1.68,1.83,2.83,2.16,3.83,1.07,8.35-3.09,10.09-9.31,1.74-6.22.05-12.12-3.78-13.2Z"/>
  </g>
  <g>
    <path class="cls-3" d="M357.73,700.48s14.95,4.7,31.1,3.88c16.14-.81,29.65-1,29.65-1,0,0,12.33,9.13,27.85,5.76,0,0,18.13,10.38,19.87.72.87-4.84-12.2-10.21-12.2-10.21,0,0,20.22,6.67,21.08-1.14s-16.72-9.8-16.72-9.8c0,0,21.05.09,19.56-8.1-1.5-8.19-19.59-5.27-19.59-5.27,0,0,16.49-4.59,14.3-10.76-2.31-6.48-11.39-3.69-16.15-1.71-3.09,1.29-6.3,2.25-9.61,2.76-2.95.46-5.82.61-6.06-.47-.51-2.27,8.26-12,3.81-17.15-.04-.05-.09-.1-.13-.15-2.99-3.35-8.23-3.36-11.26-.05-3.37,3.7-9.63,10.36-13.25,13.09-5.14,3.87-5.25,6.76-5.25,6.76l-46.95,2.17-10.04,30.67Z"/>
    <path class="cls-22" d="M445.47,705.56c1.11-1.21,7.14-8.01,6.55-18.19-.67-11.43-9.14-17.79-10.29-18.63-.76,1.18-2.73,3.86-6.36,5.45-5.28,2.31-10.13.57-11.18.17,1.06,1.8,2.78,5.29,3.07,9.98.39,6.27-2,10.94-3.07,12.76,2.44-.07,6.55.11,11.21,1.9,4.99,1.92,8.32,4.79,10.08,6.56Z"/>
    <path class="cls-5" d="M414.5,694.1c.77-1.74,1.82-4.66,1.98-8.41.17-3.83-.66-6.89-1.29-8.7.38,2.41.65,5.42.49,8.87-.15,3.21-.64,5.99-1.18,8.23Z"/>
  </g>
  <path class="cls-14" d="M319.39,835.37l19.69,22.72s29.06-8,37.38-33.37l-16.96-22.57-40.11,33.22Z"/>
  <path class="cls-14" d="M190.89,831.99l11.3,53.69c16.83-4.65,33.67-9.29,50.5-13.94-.48-12.39-.95-24.77-1.43-37.16l-60.37-2.59Z"/>
  <path class="cls-6" d="M171.69,767.9s-2.66,55.11,11.5,63.51c14.16,8.4,44.3,16.26,75.08,10.69l3.76-25.24s15.86,2.9,21.01,1.12l26.09,21.26s32.52-4.46,56.73-41.42l-18.49-27.17-175.67-2.75Z"/>
  <path class="cls-17" d="M332.33,705.17c13.2,6.03,24.19,9.63,31.94,11.82,4.31,1.22,6.1,1.57,8.32.99,11.31-2.98,15.68-25.51,13.62-41.54-1.19-9.22-4.1-13.2-4.86-14.19-6.71-8.73-17.95-9.66-20.82-9.81-13.42.72-26.83,1.45-40.25,2.17l12.05,50.56Z"/>
  <path class="cls-33" d="M328.11,648.2c-13.73-16.92-36.61-20.64-50.38-22.87-20.54-3.34-38.69.08-48.34,3.18-34.9,11.19-63.05,64.65-62.14,132.7.06,4.19,2.3,8.07,5.93,10.18,21.51,12.5,40.74,18.88,54.41,22.37,10.88,2.77,91.42,23.31,123.05-15.02.02-.02.04-.05.06-.07,2.67-3.24,3.39-7.66,1.98-11.61-2.87-8.03-6.38-19.1-9.26-32.41-10.5-48.61.38-67.11-15.3-86.43Z"/>
  <path class="cls-17" d="M242.55,622.59l5.01,10.55c2.92,6.15,11.77,21.19,30.74,28.03,4.31,1.56,8.8,2.54,13.34,2.94,16.34,1.41,29.17-5.17,32.71-7.22l10.14-5.87-91.94-28.42Z"/>
  <path class="cls-16" d="M252.2,630.93c1.5,3.15,9.3,18.72,27.85,25.41,21.14,7.63,39.19-2.42,41.74-3.9l-69.59-21.51Z"/>
  <path class="cls-24" d="M173.78,585.69c3.53.05,6.46,1.06,8.52,2.01-.19,4.91-1.33,17.91-10.66,30.62-9.95,13.56-23.1,18.44-27.68,19.91-1.09-1.7-2.62-4.48-3.43-8.13-4.27-19.18,15.13-44.64,33.26-44.41Z"/>
  <g>
    <path class="cls-30" d="M422.39,560.52c-1.5,8.69-5.36,20.96-11.1,34.08,0,0,34.19-24.85,30.5-66.11,3.02,4.3,6.85,8.78,9.67,8.11,8.99-2.13,12.13-57.44-16.26-101.34-4-6.19-36.8-57.41-94.33-60.14-19.61-.93-35.63,4.07-45.66,8.2,9.25-7.9,14.79-15.78,12.77-19.24-2.18-3.75-13.51-1.61-21.01,2.11-10.47,5.19-15.54,14.47-17.56,18.87-10.65-4.43-19.66-6.08-26.09-6.74-4.72-.48-10.79-1.05-11.7,1.14-1.23,2.96,7.53,9.07,8.87,10-15.27,3.25-25.24,9.54-30.56,13.53-17.24,12.92-23.57,30.07-27.76,41.4-4.14,11.21-5.44,20.21-6.3,26.4-1.7,12.22-2.76,31,2.07,54.25,3.63-7.28,7.25-14.55,10.88-21.83,37.07,7.1,75.71,15.42,115.71,25.2,41.31,10.1,80.61,20.9,117.84,32.09Z"/>
    <g>
      <path class="cls-12" d="M197.58,513.27c-13.65-12.57-21.84-11.57-24.02-11.13-14.31,2.83-23.8,31.19-9.16,48.11,8.75,10.12,23.07,12.6,27.89,13.25,1.77-16.74,3.53-33.48,5.3-50.23Z"/>
      <path class="cls-13" d="M170.94,547.34c4.98,5.76,12.58,7.91,16.92,8.73,1.26-11.96,2.51-23.93,3.78-35.89-8.12-6.72-13.02-6.1-14.41-5.83-9.82,1.94-16.33,21.4-6.29,33Z"/>
    </g>
    <path class="cls-11" d="M241.07,437.32c43.19-30.75,90.8-17.33,100.64-14.56s57.45,16.2,78.21,64.98c16.7,39.22,4.11,75.77-1.27,91.21-4.39,12.58-9.82,22.44-14.1,29.24.53,6.17.22,14.86-4.43,23-12.07,21.14-44.15,22.27-59.41,22.81-63.27,2.23-147.51-33.65-152.52-86.46-1.21-12.74,2.42-23.45,4.62-28.89-.12-5.59.09-13.54,1.69-22.89,1.42-8.29,8.59-51.41,46.56-78.44Z"/>
    <path class="cls-30" d="M186.33,527.15c1.72.64,6.82-5.49,22.56-38.52,4.21-.79,13.03-3.02,21.6-10.07,8.47-6.97,12.31-15.04,13.89-18.98.21,3.69.17,9.43-1.61,16.08-1.87,6.99-4.11,9.24-2.93,10.84,2.84,3.85,20.68-2.37,33.02-11.45,8.31-6.11,16.54-15.28,16.98-15.78,1.44-1.62,2.73-3.16,3.88-4.58-.13,14.17,24.48,50.92,35.64,48.58,1.72-1.21-.81-5.69-2.72-16.98-1.47-8.66-1.8-15.87-1.85-20.63,15.9,11.76,29.71,18.49,39.66,22.51,8.37,3.38,13.84,4.78,19.47,10.59,10.67,11.01,10.07,25.61,14.28,25.64.58,0,2.39-.3,7.3-13.36,3.01-8.01,4.9-14.76,6.05-19.32-.2,4.84.09,12.08,2.69,20.33,3.4,10.79,9.13,18.18,12.74,22.16.73,7.63.94,18.96-2.4,32.03-2.16,8.45-5.22,15.33-4.71,15.56.4.18,2.84-3.79,12.45-23.61,5.81-11.34,14.96-33.33,12.36-60.61-6.37-66.79-76.67-97.56-80.67-99.24-4.44-1.86-72.6-29.06-128.1,11.82-51.78,38.13-54.93,115-49.58,116.98Z"/>
    <g>
      <path class="cls-9" d="M349.69,602.9l-50.43-12.16c-8.14,11.57-6.91,26.97,2.28,36.19,8.79,8.82,22.42,9.54,32.55,4.33,10.32-5.31,16.5-16.51,15.6-28.37Z"/>
      <g class="cls-19">
        <ellipse class="cls-26" cx="317.95" cy="626.88" rx="17.51" ry="33.43" transform="translate(-366.82 785.54) rotate(-76.15)"/>
        <ellipse class="cls-7" cx="325.75" cy="589.72" rx="17.51" ry="33.43" transform="translate(-324.81 764.84) rotate(-76.15)"/>
      </g>
    </g>
    <path class="cls-2" d="M335.77,573.21c-.95,2.35-3.48,3.05-3.3,3.41.24.5,5.64.15,6.83-3.27,1.34-3.85-4.01-7.62-4.6-7.25-.52.32,2.41,3.83,1.07,7.11Z"/>
    <ellipse class="cls-8" cx="236.16" cy="570.6" rx="8.19" ry="12.66" transform="translate(-377.11 643.07) rotate(-74.26)"/>
    <path class="cls-30" d="M399.27,532.36c1.5-1.73-3.17-11.57-11.31-13.66-9.03-2.32-18.61,5.84-17.92,8.04.49,1.56,5.95-.6,15.68,1.47,8.79,1.87,12.48,5.38,13.56,4.15Z"/>
    <ellipse class="cls-8" cx="386.02" cy="606.17" rx="8.19" ry="12.66" transform="translate(-302.16 813.22) rotate(-74.26)"/>
    <g>
      <circle class="cls-7" cx="287.78" cy="539.29" r="27.18"/>
      <circle class="cls-2" cx="292.07" cy="542.75" r="19.27"/>
      <circle class="cls-7" cx="306.52" cy="540.01" r="6.91"/>
    </g>
    <g>
      <circle class="cls-7" cx="381.52" cy="563.18" r="27.18"/>
      <circle class="cls-2" cx="385.81" cy="566.64" r="19.27"/>
      <circle class="cls-7" cx="400.26" cy="563.9" r="6.91"/>
    </g>
    <path class="cls-30" d="M295.77,505.02c1.13-1.99-5.4-10.71-13.8-11.14-9.31-.48-17.08,9.42-15.97,11.44.79,1.44,5.72-1.77,15.66-1.67,8.98.09,13.3,2.8,14.11,1.38Z"/>
  </g>
  <g>
    <path class="cls-20" d="M169.36,646.11s-17.31-9.84-30.52-25.56c-13.21-15.72-24.72-28.44-24.72-28.44,0,0-19.16-3.57-29.45-20.92,0,0-25.34-7.89-17.87-17.86,3.74-5,20.05,2.51,20.05,2.51,0,0-23.7-13.03-17.18-20.59,6.52-7.56,23.59,7.08,23.59,7.08,0,0-18.31-19.5-9.39-25.19s21.86,13.66,21.86,13.66c0,0-10-19.31-2.36-22.61,8.02-3.46,13.29,7.4,15.56,13.54,1.47,3.99,3.37,7.81,5.75,11.32,2.13,3.14,4.47,5.93,5.68,5.23,2.55-1.49,4.01-18.07,12.65-18.38.09,0,.17,0,.26,0,5.7-.12,10.25,4.74,9.78,10.43-.52,6.34-1.31,17.92-.71,23.65.84,8.13-1.74,10.73-1.74,10.73l38.61,45.55-19.84,35.88Z"/>
    <path class="cls-22" d="M92.22,560.73c.64-2.66,2.46-8.54,7.75-13.65,7.79-7.53,17.39-7.87,19.66-7.89-3.5.6-11.82,2.51-19.14,9.51-4.55,4.35-6.99,9-8.26,12.03Z"/>
    <path class="cls-5" d="M129,583.89c1.08-.2,2.75-.66,4.48-1.79,2.75-1.8,4.03-4.24,4.53-5.35-1.27,1.51-3.03,3.28-5.36,4.93-1.28.91-2.52,1.63-3.65,2.21Z"/>
    <path class="cls-5" d="M129.73,543.99c-.19.26-2.2,3.04-1.16,6.04,1.01,2.9,4.46,4.82,8.16,4.1-3.47.12-6.5-1.8-7.51-4.62-.93-2.61.23-5,.5-5.52Z"/>
  </g>
  <path class="cls-17" d="M182.29,587.7l41.11,43.15c6.84,9.2,8.8,20.85,4.45,29.91-6.26,13.02-25.12,19.71-42.37,11.52,0,0-34.49-21.36-41.54-34.05,4.91-1.8,24.75-9.68,33.89-30.39,3.4-7.69,4.31-14.88,4.45-20.15Z"/>
  <g>
    <path class="cls-23" d="M252.92,868.52c-.83,8.94-1.48,8.22-1.79,17.47-.06,2.01-.11,3.98-.13,5.88-17.73-1.42-35.45-2.85-53.19-4.29,0-.44.03-.89.04-1.33.9-.32,1.81-.65,2.75-.96-.59-4.65-1.06-9.65-1.34-14.95,5.78,1.68,14.51,3.54,25.29,3.38,12.43-.19,22.31-3,28.37-5.2Z"/>
    <path class="cls-32" d="M252.71,901.75c0,2.09-.08,4.11-.2,6.05-.23,3.37-.6,6.52-1.09,9.38-54.14,12.06-83.63,1.16-83.63,1.16-.73-3.09-.72-6.02-.12-8.76,1.67-7.84,7.99-14.22,14.57-18.94.89-.63,1.76-1.23,2.66-1.8,6.69-4.36,13.05-6.92,14.4-7.44.17-.06.27-.1.27-.1,5.61,2.79,11.16,4.9,16.42,6.34,12.81,3.49,23.93,2.88,29.98-2.26,1.51-1.27,4.85-5.81,5.9-8.44,1.48,6.04.83,16.23.83,24.81Z"/>
    <path class="cls-21" d="M216.89,883.83c.16,1.4-.24,2.69-.89,3.81-.95,1.72-2.42,3.02-3.14,3.66-.21.2-.44.39-.67.56-3.22,2.58-7.27,3.84-11.22,4.39-2.98.41-5.95.25-8.73-.42-3.79-.88-7.26-2.66-9.98-5.18.89-.63,1.76-1.23,2.66-1.8,6.69-4.36,13.05-6.92,14.4-7.44-.19-.27,2.12-4.18,5.6-4.91,5.51-1.16,11.45,2.98,11.97,7.34Z"/>
    <path class="cls-1" d="M252.51,907.8c-.23,3.37-.6,6.52-1.09,9.38-54.14,12.06-83.63,1.16-83.63,1.16-.73-3.09-.72-6.02-.12-8.76,5.24,2.31,18.64,5.71,49.78,2.91,16-1.44,27.24-3.12,35.05-4.69Z"/>
    <path class="cls-31" d="M213.68,892.44c-1.27.4-3.04.99-5.15,1.76-1.67.63-2.96,1.1-4.34,1.72-1.63.73-3.9,1.9-6.43,3.72,0,0-2.53-1.54-5.52-3.82-2.55-1.94-5.42-4.44-7.32-6.98,6.69-4.36,13.05-6.92,14.4-7.44,2.24,3.17,6.37,7.79,12.87,10.46.49.21.99.4,1.5.58Z"/>
  </g>
  <g>
    <path class="cls-23" d="M333.51,851.71c5.23,6.83,5.52,5.73,11.51,12.31,1.3,1.44,2.56,2.85,3.75,4.23,12.12-12.08,24.22-24.15,36.33-36.24-.28-.32-.58-.63-.86-.95-.86.32-1.73.65-2.61,1.01-2.46-3.77-5.23-7.74-8.32-11.8-3.19,4.83-8.44,11.62-16.45,18.21-9.23,7.59-17.55,11.07-23.36,13.23Z"/>
    <path class="cls-32" d="M353.66,876.57c1.3,1.53,2.61,2.96,3.91,4.31,2.27,2.33,4.5,4.4,6.64,6.2,47.21-24.85,62.05-51.19,62.05-51.19-1.39-2.72-3.21-4.86-5.37-6.5-6.11-4.71-14.71-5.46-22.47-4.82-1.04.09-2.06.2-3.07.33-7.61.97-13.87,3.05-15.19,3.5-.17.06-.25.1-.25.1-2.38,5.53-5.14,10.54-8.1,14.86-7.23,10.53-15.76,17.01-23.39,17-1.9.01-7.17-1.24-9.58-2.52,2.68,5.35,9.49,12.42,14.83,18.71Z"/>
    <path class="cls-21" d="M368.78,841.14c.76,1.13,1.85,1.83,3.02,2.24,1.77.67,3.65.71,4.58.73.28.01.57,0,.84,0,3.96-.11,7.72-1.71,10.96-3.76,2.44-1.55,4.52-3.52,6.14-5.74,2.23-3,3.66-6.47,4.09-10.01-1.04.09-2.06.2-3.07.33-7.61.97-13.87,3.05-15.19,3.5-.03-.32-4.16-1.75-7.17-.12-4.76,2.57-6.54,9.31-4.21,12.83Z"/>
    <path class="cls-1" d="M357.57,880.88c2.27,2.33,4.5,4.4,6.64,6.2,47.21-24.85,62.05-51.19,62.05-51.19-1.39-2.72-3.21-4.86-5.37-6.5-2.41,4.96-10.12,15.78-34.69,33.11-12.63,8.9-21.92,14.66-28.63,18.37Z"/>
    <path class="cls-31" d="M376.49,845.45c1.18-.5,2.84-1.17,4.87-1.91,1.62-.58,2.85-1.03,4.26-1.44,1.65-.48,4.04-1.03,7.03-1.27,0,0,.9-2.7,1.67-6.24.66-3.01,1.21-6.63,1.02-9.68-7.61.97-13.87,3.05-15.19,3.5.33,3.72.18,9.67-2.93,15.68-.23.45-.47.91-.74,1.36Z"/>
  </g>
  <text class="cls-18" transform="translate(236.58 691.67) rotate(11.11) scale(.81 1)"><tspan x="0" y="0">A</tspan></text>
</svg>