<?xml version="1.0" encoding="UTF-8"?>
<svg xmlns="http://www.w3.org/2000/svg" xmlns:xlink="http://www.w3.org/1999/xlink" viewBox="0 0 500 500">
  <defs>
    <style>
      .cls-1, .cls-2 {
        fill: #fff;
      }

      .cls-3 {
        letter-spacing: 0em;
      }

      .cls-2 {
        fill-rule: evenodd;
      }

      .cls-4 {
        letter-spacing: -.03em;
      }

      .cls-5 {
        fill: url(#linear-gradient);
      }

      .cls-6 {
        font-family: CRONOSKIDRegular, CRONOS-KID;
        font-size: 46.79px;
      }
    </style>
    <linearGradient id="linear-gradient" x1="132.51" y1="188.62" x2="367.49" y2="188.62" gradientUnits="userSpaceOnUse">
      <stop offset="0" stop-color="#f63"/>
      <stop offset=".33" stop-color="#fc5c31"/>
      <stop offset=".88" stop-color="#f6432d"/>
      <stop offset=".99" stop-color="#f53d2d"/>
    </linearGradient>
  </defs>
  <g id="BACKGROUND">
    <rect class="cls-1" x=".09" y="-.06" width="500" height="500"/>
  </g>
  <g id="OBJECTS">
    <rect class="cls-1" x="-2.32" width="502.32" height="499.3"/>
    <text class="cls-6" transform="translate(91.52 393.47)"><tspan x="0" y="0">@DuniaAksa</tspan><tspan class="cls-3" x="230.08" y="0">R</tspan><tspan x="253.48" y="0">a</tspan><tspan class="cls-4" x="275.65" y="0">r</tspan><tspan x="296.2" y="0">a</tspan></text>
    <g>
      <rect class="cls-5" x="132.51" y="72.57" width="234.98" height="232.09" rx="36.43" ry="36.43"/>
      <path class="cls-2" d="M330.75,143.46c0-1.93-1.55-3.49-3.46-3.49h-37.48c-.92-24.47-18.38-43.98-39.8-43.98s-38.88,19.51-39.8,43.98h-37.53c-1.88.03-3.4,1.58-3.4,3.49,0,.09,0,.18.01.27h-.03l5.35,117.94c0,.33.01.66.04.99,0,.08,0,.15.01.22v.25s.03,0,.03,0c.81,8.21,6.77,14.82,14.86,15.13h.02s119.65.01,119.65.01h0c8.24-.23,14.92-6.93,15.62-15.24h0s0-.12,0-.12c0-.08.01-.17.01-.26.01-.21.03-.42.03-.62l5.84-118.41h0c0-.06,0-.12,0-.18ZM250,106.64c15.6,0,28.32,14.81,28.91,33.34h-57.83c.6-18.53,13.31-33.34,28.91-33.34ZM279.6,232.44c-1.06,8.75-6.36,15.77-14.58,19.27-4.58,1.96-10.72,3.02-15.58,2.68-7.59-.29-14.72-2.14-21.28-5.51-2.35-1.2-5.85-3.61-8.53-5.87-.68-.57-.76-.93-.32-1.58.25-.36.69-1.02,1.69-2.48,1.44-2.11,1.61-2.37,1.78-2.62.46-.7,1.2-.76,1.94-.18q.08.06.14.11t.41.32c.29.22.46.36.53.41,7.08,5.55,15.34,8.75,23.67,9.07,11.59-.16,19.93-5.37,21.42-13.37,1.65-8.81-5.27-16.42-18.8-20.66-4.24-1.32-14.93-5.61-16.9-6.76-9.26-5.43-13.59-12.55-12.97-21.34.95-12.18,12.25-21.27,26.55-21.33,6.39,0,12.77,1.32,18.9,3.9,2.17.92,6.04,3.02,7.38,4.02.77.57.92,1.23.48,1.94-.25.41-.66,1.06-1.51,2.43h-.01c-1.13,1.81-1.16,1.86-1.42,2.28-.45.69-.98.75-1.79.24-6.56-4.4-13.83-6.62-21.82-6.78-9.95.2-17.4,6.12-17.89,14.19-.13,7.29,5.33,12.6,17.14,16.66,23.96,7.7,33.14,16.73,31.41,30.97Z"/>
    </g>
  </g>
</svg>